<svg xmlns="http://www.w3.org/2000/svg" width="280" height="235" fill="none" viewBox="0 0 280 235"><path fill="#000" d="M6.757 6.52q0-2.32-1.32-2.32h-.16q-.08 0-.28.04a.36.36 0 0 0-.16.04h-.16.08q-.72.12-1.16.12-1.88 0-1.88-1.8 0-1.88 2.36-1.88h.36q.16 0 .32.04h-.04l1.88.24q.96.12 2.24.12.88 0 2.28-.12h-.04q1.56-.16 2.76-.2 1.24-.08 2.08-.08 2.64 0 4.36.4 1.24.36 2.32 1.08 1.12.68 1.88 1.64.8.96 1.24 2.16.48 1.16.48 2.48 0 3.88-2.64 5.96-2.6 2.04-7.64 2.04h-3.8q-.44 0-.64-.04-.16.04-.2.16v1.24q0 4.88.24 5.76.16.64 1.08.64h.36q.16-.04.36-.08h.4q.24-.04.36-.04h.2a.36.36 0 0 1 .16-.04q1.84 0 1.84 1.76 0 1.92-2.44 1.92a.36.36 0 0 0-.16-.04h-.2a.36.36 0 0 1-.16-.04l-1.92-.28q-.8-.12-2.32-.12-1.28 0-2.12.12l-2.24.32q-.12 0-.24.04h-.32q-2.4 0-2.4-1.88 0-.8.52-1.28.561-.52 1.32-.52.56 0 1.16.12.16 0 .32.04h.36q1.32 0 1.32-2.32Zm4.68-1.68q-.16.2-.16 1.8v5.68q0 .52.96.64.24 0 .4.04h.84q.32-.04.84-.04a61 61 0 0 0 2.36-.12 14.5 14.5 0 0 0 2.04-.28q2.92-.76 2.92-3.96 0-4.36-5.6-4.36-4.2 0-4.6.6M33.386 7.6q1.32 0 1.56 1.04 1.96-1.72 4.68-1.72 1.48 0 2.68.44 1.2.4 2.08 1.2a5.2 5.2 0 0 1 1.36 1.84q.48 1.08.48 2.4 0 1.92-1 3.12-1 1.16-2.68 1.16-1.16 0-1.96-.68-.76-.68-.76-1.68 0-.8.64-1.44.68-.64 1.52-.64.08 0-.04-.04-.08-.04.12.04v-.2q0-.88-.8-1.48-.76-.6-1.92-.6-2.52 0-3.36 2.32-.56 1.6-.56 4.72v4.36q0 .68.04.84.2 1.76.52 1.76h.44l.4-.08q.52-.16.92-.16 1.84 0 1.84 1.72 0 1.88-2.2 1.88h-.12q-.32 0-.8-.04-.44-.04-1.04-.12-1.16-.12-1.64-.12-.76 0-1.32.04-.56 0-1 .04l-2.16.2q-2.2 0-2.2-1.88 0-1.68 2.08-1.68h.32a.6.6 0 0 1 .36.04l.48.12h.32q.04.04.12.04h.04q.36 0 .4-1.2 0-.48.04-.96t.04-.96l-.12-8.6q-.08-1.48-.4-1.68-.08 0-.4.04t-.44.04h.08q-.48.12-1 .12-1.88 0-1.88-1.76 0-1.84 2.24-1.84.08.04.48.08.4 0 .72.04t.6.08h.68q.16 0 .36-.04h.12a.45.45 0 0 1 .2-.04q.4-.08.84-.08m32.768 8.28q0 .92-.04 1.44-.039.52-.24.8t-.6.36q-.36.04-1.04.04h-12.04q-.16 0-.16.04 0 2.68 1.56 4.36 1.48 1.72 3.72 1.72 1.48 0 2.68-.8t1.56-2.04l.36-1.08q.24-.6.68-.96.48-.36 1.16-.36 2.08 0 2.08 2 0 2.72-2.8 4.8-2.68 2-6.04 2-4.32 0-6.84-2.84-2.48-2.84-2.48-7.52 0-4.72 2.64-7.84 2.68-3.08 7-3.08 2 0 3.56.64a8.5 8.5 0 0 1 2.8 1.88q2.48 2.6 2.48 6.44m-4.36-.96q0-1.8-1.32-3.12-1.4-1.32-3.12-1.32-1.76 0-3.44 1.44-1.52 1.4-1.52 3Zm15.613-8q2.2 0 3.72.88.36-1.12 1.76-1.12 1.88 0 1.88 1.76a.36.36 0 0 1-.04.16v.28q0 .16-.04.4v.4a6.8 6.8 0 0 0-.16 1.4q0 .52.12 1.24.08.44.12.8.04.32.04.6 0 2-1.88 2-1.84 0-1.92-1.72l-.04-1.28q-.04-.92-1.12-1.56-1.04-.68-2.52-.68-1.44 0-2.44.72t-1 1.84q0 .96.76 1.56.76.56 2 .8.56.08 1.08.16l1.12.16q7.04.96 7.04 5.84 0 2.92-2.36 4.88-2.32 1.76-5.84 1.76-2.64 0-4.8-1.2-.2 1.52-1.92 1.52-2.04 0-2.04-2.08.08-.6.12-.96.08-.36.12-.64a4 4 0 0 0 .04-.56 8 8 0 0 0 .04-.88q0-.44-.08-.92a9 9 0 0 0-.12-.96 4.8 4.8 0 0 1-.12-1.08q0-1.84 1.88-1.84 1.28 0 1.56.68.28.6.32 2.2.04 1.4 1.48 2.28 1.48.88 3.84.88 1.56 0 2.56-.76 1.04-.8 1.04-2.04 0-2.12-3.52-2.48a35 35 0 0 1-3.68-.6q-1.6-.4-2.68-1.04-1.08-.68-1.64-1.72t-.56-2.6q0-1.44.56-2.64.6-1.2 1.64-2.04t2.48-1.32 3.2-.48m18.408 14.04v1.48q0 .52.04.72.12 1.2.36 1.2-.04 0 .2-.04t.6-.12l-.04.04q.12-.04.28-.08.2-.04.48-.04 2.08 0 2.08 1.76 0 .8-.68 1.32-.64.52-1.64.52-.32 0-.8-.04t-1.12-.12q-.6-.08-1.04-.12a4 4 0 0 0-.72-.08q-.44 0-1 .04-.52.04-1.12.12-.72.08-1.24.12-.48.08-.8.08-2.16 0-2.16-1.84 0-1.76 1.96-1.76.08 0 .44.04.4.04.64.08.28.08.44.08h.24q.32 0 .44-1.92v-9.64q-.12-1.88-.48-1.88-.08 0-.28.04a6 6 0 0 0-.48.12 2 2 0 0 1-.48.12h-.4q-2.04 0-2.04-1.76 0-1.8 2.32-1.8h.72q.28 0 .4.04.56.08.92.12.4.04.52.04h.32q.28-.04.52-.08l1.04-.12q1.72 0 1.72 2v.56q-.04.16-.04.28v.12q-.04.12-.04 1.12 0 .28-.04.6v.6q-.04.8-.04 1.6v6.48m-2.64-14.32q-1.16 0-1.96-.76t-.8-1.88.8-1.84q.8-.76 1.96-.76t1.96.76q.84.72.84 1.84t-.84 1.88q-.8.76-1.96.76m17.063 21.56q-4.28 0-6.841-2.92-2.56-2.92-2.56-7.72 0-4.84 2.56-7.68 2.56-2.96 6.961-2.96t7 2.88q2.52 2.84 2.52 7.64 0 4.88-2.6 7.76-2.6 3-7.04 3m.2-17.72q-2.4 0-3.76 1.72-1.322 1.72-1.44 4.92v.44q0 3.32 1.319 5.2 1.32 1.88 3.721 1.88 2.439 0 3.84-1.84 1.44-1.88 1.44-5.28 0-7.04-5.12-7.04m17.675-2.88q1.48 0 1.72 1.24 2.16-1.92 5.44-1.92 2.241 0 4.2 1.12h-.04q2.08 1.2 2.76 2.84.6 1.4.6 3.56v9.08q.04.64.28.8h.52q.32-.04.52-.08.201-.04.36-.04.16-.04.4-.04.72 0 1.28.52.56.48.56 1.16 0 .8-.64 1.36-.639.52-1.56.52a8 8 0 0 1-.64-.04q-.399 0-.84-.08-.6-.08-1.32-.12-.68-.08-1.2-.08-.399 0-.84.04-.399 0-.72.04-.879.12-1.44.16-.56.08-.64.08-2.16 0-2.16-1.88 0-1.68 1.92-1.68.16.04.32.04t.28.04h.32q.2.04.32.08h.2a.7.7 0 0 0 .16.04q.28 0 .32-1.52 0-.48.04-.96.04-.52.04-1l.04-2.28v-2.88q0-1.8-.2-2.68-.12-.6-.44-1.08a2.9 2.9 0 0 0-.76-.84v.04q-1.16-.8-2.44-.8-2.679 0-3.84 1.88-.8 1.36-.8 4.8v5.04q0 1.36.08 1.84.12.48.36.48.04 0 .24-.04t.44-.08q.24-.08.44-.12.24-.04.56-.04 1.84 0 1.84 1.8t-2.16 1.8q-.2 0-.8-.08-.56-.08-1.28-.16a12 12 0 0 0-2.64-.08q-.48.04-1.16.12l-.88.08q-.36.08-.68.08-.32.04-.4.04-2.24 0-2.24-1.84 0-1.72 1.84-1.72.2 0 .32.04.16 0 .32.04.52.12 1.08.12.48 0 .52-1.64 0-1.04.04-2.08.04-1.08.04-2.12v-4.6l-.08-1.32q-.08-.88-.16-1.24-.08-.4-.28-.48-.08.04-.36.08-.28 0-.44.04-.24.04-.44.08h-.4q-2 0-2-1.76t2.32-1.76h.24q.12-.04.28.04l1.32.16h.44q.28-.04.52-.08a4 4 0 0 1 .52-.04q.24-.04.56-.04m37.029 20.44q-2.96 0-4-2-2.12 2.16-5.88 2.16-3.399 0-5.4-1.64-2-1.68-2-4.44 0-1.68.8-2.96a6.33 6.33 0 0 1 2.24-2.12q1.08-.6 1.88-.8.76-.2 3.08-.48 3.04-.32 3.88-.84.68-.48.68-1.8 0-1.28-.92-2.04-.879-.76-2.52-.76-1.56 0-2.84.88v-.04q-.28.28-.28.32h.04q.84.72.84 1.72t-.76 1.64q-.72.64-1.84.64-1.28 0-2.12-.8-.84-.84-.84-2.08 0-2.4 2.36-4.04 2.24-1.64 5.48-1.64 7.56 0 7.56 7.16v9q.04.52.08.72.2.88.64.88.68 0 .68-1.88v-1.88q0-1.72 1.8-1.72 1.92 0 1.92 2.32v.2l-.04 2.16q-.08 4.16-4.52 4.16m-2.84-26.2q0 1.28-1.72 2l-5.44 2.4a3 3 0 0 1-.36.12h-.36q-1.44 0-1.44-1.44 0-.72 1.12-1.44l4.76-3q.321-.2.72-.32.4-.16.76-.16 1.96 0 1.96 1.84m-1.96 16.64q-.24.08-.48.2a5 5 0 0 1-.48.16q-1.08.36-3.4.56-3.76.36-3.76 2.68 0 1.16.84 1.88.88.68 2.4.68 2.28 0 3.52-1.24 1.281-1.24 1.32-3.4Zm19.378 11.64q0 .36-.12.68-.12.36-.32.68.28.16.6.24.321.12.6.12 1.8 0 2.56-1.12.8-1.12.8-3.6V15.2q0-3.32-.16-3.96-.04-.4-.4-.4-.12 0-.36.04-.2.04-.52.12v-.04a2 2 0 0 1-.44.12q-.2.04-.4.04-1.88 0-1.88-1.76t2.24-1.76h.6q.28 0 .48.04 1.2.12 1.6.12h.32l.56-.08q.28-.04.68-.08.441-.04.36-.04 1.72 0 1.72 1.76v.28q0 .2-.04.48-.04.36-.04.64v.48q-.04.32-.04 1 0 .64-.04 1.68a4 4 0 0 1-.04.6V15q-.04.8-.04 1.44v9.68q0 1.2-.08 2.04a15 15 0 0 1-.12 1.44 8.6 8.6 0 0 1-.56 1.72 6.3 6.3 0 0 1-.96 1.56q-2 2.36-5.56 2.36-1.28 0-2.36-.36a5.9 5.9 0 0 1-1.88-.92q-.8-.6-1.24-1.44a3.36 3.36 0 0 1-.48-1.76q0-1.16.76-1.96.72-.8 1.84-.8.96 0 1.68.6.68.64.68 1.52m5.72-23.48q-1.16 0-1.96-.76a2.5 2.5 0 0 1-.8-1.88q0-1.12.8-1.84.8-.76 1.96-.76t1.96.8q.84.76.84 1.8 0 1.12-.84 1.88-.8.76-1.96.76m24.161 21.08q-1.52 0-1.72-1.24-2.08 1.72-5.28 1.72-4.84 0-6.76-3.04a6 6 0 0 1-.64-1.44 6.7 6.7 0 0 1-.28-1.6q-.04-.48-.04-1.36V15.6q0-4.68-.48-4.68-.08 0-.24.04-.16 0-.36.04a7 7 0 0 1-.6.08q-.36.04-.28.04-1.96 0-1.96-1.8 0-1.72 2.28-1.72.2 0 .48.04.32 0 .64.04t.6.08h.96q.32-.04.64-.12.16-.04.32-.04.16-.04.4-.04 1.84 0 1.84 1.96v.8l-.04 2.52-.12 2.8v2.4q0 1.64.12 2.76.16 1.12.36 1.8.76 2.04 3.56 2.04 1.4 0 2.48-.64 1.12-.64 1.56-1.72.56-1.36.56-5.4v-4.56q-.12-1.28-.36-1.28-.16 0-.56.08h-.56q-1.96 0-1.96-1.72 0-1.84 2.12-1.84.2 0 .48.04.28 0 .6.04t.6.08h.72q.24 0 .52-.04.24-.04.48-.04.28-.04.48-.04 1.8 0 1.8 1.72 0 .56-.08.96v-.04q-.08.72-.16 1.76-.04 1.04-.04 2.4v5.84q0 2.24.04 2.44.2 1.64.4 1.64h.28q.2-.04.44-.08a8 8 0 0 1 .52-.08q.36-.04.28-.04 1.96 0 1.96 1.76 0 1.84-2.24 1.84h-.4q-.2 0-.4-.04a.36.36 0 0 1-.16-.04h-.12q-.96-.12-1.08-.12a.3.3 0 0 0-.12.04h-.12q-.24 0-.44.04h.04q-.48.12-.96.12m17.206-20.8q.4 0 .8.04.44.04.84.12.32-1.68 1.52-2.6 1.24-.96 3.4-.96 2.04 0 3.36 1.04 1.36 1.04 1.36 2.68 0 1.16-.8 1.96-.76.8-1.8.8a2.33 2.33 0 0 1-1.52-.56q-.64-.6-.64-1.4 0-.36.08-.64.12-.32.52-.64a1.4 1.4 0 0 0-.36-.12.7.7 0 0 0-.32-.08q-1.28 0-1.4 1.76 1.4 1.04 2.12 2.4.76 1.32.76 3 0 2.84-2.2 4.76-2.12 1.88-5.32 1.88-1.16 0-2.32-.24a10 10 0 0 1-2.28-.8q-.6-.2-.76-.2-.28 0-.52.32-.2.28-.2.72 0 1.44 3.32 1.44h.48q.159 0 .36-.04h.52q3.68 0 6.04.72 2.28.72 3.6 2.2 1.36 1.48 1.36 3.4 0 1.52-.72 2.72-.68 1.2-2 2.04t-3.2 1.28q-1.881.44-4.2.44-4.68 0-7.32-1.64t-2.64-4.56q0-2.84 2.8-4.36-2.4-1.28-2.4-3.64 0-1.28.76-2.28.759-1 2.04-1.6a4.3 4.3 0 0 1-.6-1.36 8.5 8.5 0 0 1-.12-1.48q0-2.76 2.2-4.72 2.16-1.8 5.4-1.8m.12 3.56q-1.401 0-2.4.84t-1.08 2.12v.16q0 1.48.96 2.36.96.84 2.48.84 1.64 0 2.64-.84 1-.88 1-2.28t-1.04-2.28q-1.04-.92-2.56-.92m.04 14.68q-2.76 0-4.32.8-1.56.76-1.56 2.04 0 1.32 1.52 2.04 1.52.76 4.12.76 2.76 0 4.32-.76 1.6-.76 1.6-2.04 0-1.32-1.52-2.08-1.48-.76-4.16-.76m28.527 2.88q-2.96 0-4-2-2.121 2.16-5.88 2.16-3.4 0-5.4-1.64-2-1.68-2-4.44 0-1.68.8-2.96a6.3 6.3 0 0 1 2.24-2.12q1.08-.6 1.88-.8.76-.2 3.08-.48 3.04-.32 3.88-.84.68-.48.68-1.8 0-1.28-.92-2.04-.88-.76-2.52-.76a4.9 4.9 0 0 0-2.84.88v-.04q-.28.28-.28.32h.04q.84.72.84 1.72a2.05 2.05 0 0 1-.76 1.64q-.72.64-1.84.64-1.28 0-2.12-.8-.84-.84-.84-2.08 0-2.4 2.36-4.04 2.24-1.64 5.48-1.64 7.56 0 7.56 7.16v9q.04.52.08.72.2.88.64.88.68 0 .68-1.88v-1.88q0-1.72 1.8-1.72 1.92 0 1.92 2.32v.2l-.04 2.16q-.08 4.16-4.52 4.16m-4.8-9.56q-.24.08-.48.2a5 5 0 0 1-.48.16q-1.08.36-3.4.56-3.76.36-3.76 2.68 0 1.16.84 1.88.879.68 2.4.68 2.28 0 3.52-1.24 1.28-1.24 1.32-3.4ZM266.472 7.6q1.32 0 1.56 1.04 1.96-1.72 4.68-1.72 1.48 0 2.68.44 1.2.4 2.08 1.2a5.2 5.2 0 0 1 1.36 1.84q.48 1.08.48 2.4 0 1.92-1 3.12-1 1.16-2.68 1.16-1.16 0-1.96-.68-.76-.68-.76-1.68 0-.8.64-1.44.68-.64 1.52-.64.08 0-.04-.04-.08-.04.12.04v-.2q0-.88-.8-1.48-.76-.6-1.92-.6-2.52 0-3.36 2.32-.56 1.6-.56 4.72v4.36q0 .68.04.84.2 1.76.52 1.76h.44l.4-.08q.52-.16.92-.16 1.84 0 1.84 1.72 0 1.88-2.2 1.88h-.12a10 10 0 0 1-.8-.04q-.44-.04-1.04-.12-1.16-.12-1.64-.12-.76 0-1.32.04-.56 0-1 .04l-2.16.2q-2.2 0-2.2-1.88 0-1.68 2.08-1.68h.32a.6.6 0 0 1 .36.04l.48.12h.32q.04.04.12.04h.04q.36 0 .4-1.2 0-.48.04-.96t.04-.96l-.12-8.6q-.08-1.48-.4-1.68a5 5 0 0 0-.4.04 4 4 0 0 1-.44.04h.08q-.48.12-1 .12-1.88 0-1.88-1.76 0-1.84 2.24-1.84.08.04.48.08.4 0 .72.04t.6.08h.68q.16 0 .36-.04h.12a.44.44 0 0 1 .2-.04 4.3 4.3 0 0 1 .84-.08M13.4 62.6q1-2.76 2.04-5.44t2-5.44v.04q.12-.4.12-.68 0-.12-.2-.12-.28 0-.6.08a2 2 0 0 0-.36.04h-.24a.36.36 0 0 0-.16.04h-.16q-1.88 0-1.88-1.76 0-1.8 2.24-1.8h.28q.2 0 .36.04.04 0 .04.04H17l1.36.2q.28.04.52.04h1.32q.44-.04 1.08-.12t1.12-.12q.52-.04.88-.04 2.24 0 2.24 1.76t-1.88 1.76q-.56 0-.72-.08a.8.8 0 0 0-.24-.04.36.36 0 0 1-.16-.04q-.08 0-.12-.04-.28 0-.88 1.6L16.36 65.4q-1.64 4.2-3.32 6.36-2.72 3.48-6.92 3.48-2.6 0-4.28-1.28Q0 72.6 0 70.72q0-1.4.88-2.32.84-.88 2.24-.88 1.16 0 1.88.64.76.68.76 1.68 0 1.12-.76 1.64.24.16.48.16.28.04.68.04 1.76 0 3.16-1.36 1.44-1.32 1.44-2.96 0-.84-1-3.32L5.6 53.52a1.6 1.6 0 0 0-.12-.32 5 5 0 0 1-.16-.36 8 8 0 0 1-.16-.56q-.56-1.36-.88-1.36-.08 0-.24.04-.12 0-.32.04a14 14 0 0 0-.76.12q-.4.04-.32.04-1.92 0-1.92-1.76 0-1.8 2.4-1.8h.56q.28 0 .4.04.36.04.68.12l.72.08h.44q.2.04.32.04.68 0 1.36-.04.72-.04 1.48-.12 1.2-.12 1.64-.12 2.24 0 2.24 1.76 0 1.8-2.08 1.8h-.4l-.4-.08H9.8a.8.8 0 0 0-.24-.04q0 .24.12.48Zm41.543-6.72q0 .92-.04 1.44-.039.52-.24.8t-.6.36q-.36.04-1.04.04h-12.04q-.16 0-.16.04 0 2.68 1.56 4.36 1.48 1.72 3.72 1.72 1.48 0 2.68-.8t1.56-2.04l.36-1.08q.24-.6.68-.96.48-.36 1.16-.36 2.08 0 2.08 2 0 2.72-2.8 4.8-2.68 2-6.04 2-4.32 0-6.84-2.84-2.48-2.84-2.48-7.52 0-4.72 2.64-7.84 2.68-3.08 7-3.08 2 0 3.56.64a8.5 8.5 0 0 1 2.8 1.88q2.48 2.6 2.48 6.44m-4.36-.96q0-1.8-1.32-3.12-1.4-1.32-3.12-1.32-1.76 0-3.44 1.44-1.52 1.4-1.52 3Zm14.133 8.04q.04 1.4.36 1.4.08 0 .2-.04h.16q.12-.04.28-.08h.16a.35.35 0 0 1 .16-.04h.08q0-.04.08-.04a.44.44 0 0 1 .2-.04h.24q1.88 0 1.88 1.8t-2.2 1.8q-.32 0-.84-.04a35 35 0 0 1-1.16-.12 25 25 0 0 0-1.16-.12 10 10 0 0 0-.8-.04q-.279 0-.72.04t-1.04.12q-.56.08-1.04.12t-.8.04h-.2q-2.24 0-2.24-1.92 0-1.68 1.96-1.68h.4q.16.04.32.04.48.08.68.12t.28.04q.16 0 .24-.2.081-.28.12-1 .04-.72.08-1.92v-1.32q.04-.68.04-1.32l.12-5.88v-1.52q0-.88-.04-1.84v-3.36l-.12-1.52q-.08-.12-.2-.24t-.24-.12q-.039 0-.96.16a2 2 0 0 1-.36.04h-.32q-1.96 0-1.96-1.72 0-1.8 2.16-1.8h.44q.28 0 .4.04l.8.12q.08 0 .16.04h.16q.201.04.36.04h.72q.32-.04.64-.12.36-.08.64-.12.32-.04.64-.04 1.48 0 1.48 1.64v.36q.04.12-.04.28-.24 2.96-.24 8.2Zm23.704-7.08q0 .92-.04 1.44t-.24.8-.6.36q-.36.04-1.04.04H74.46q-.16 0-.16.04 0 2.68 1.56 4.36 1.48 1.72 3.72 1.72 1.48 0 2.68-.8t1.56-2.04l.36-1.08q.24-.6.68-.96.48-.36 1.16-.36 2.08 0 2.08 2 0 2.72-2.8 4.8-2.68 2-6.04 2-4.32 0-6.84-2.84-2.48-2.84-2.48-7.52 0-4.72 2.64-7.84 2.68-3.08 7-3.08 2 0 3.56.64a8.5 8.5 0 0 1 2.8 1.88q2.48 2.6 2.48 6.44m-4.36-.96q0-1.8-1.32-3.12-1.4-1.32-3.12-1.32-1.76 0-3.44 1.44-1.52 1.4-1.52 3Zm16.653-8q.4 0 .8.04a8 8 0 0 1 .84.12q.32-1.68 1.52-2.6 1.24-.96 3.4-.96 2.04 0 3.36 1.04 1.36 1.04 1.36 2.68 0 1.16-.8 1.96-.76.8-1.8.8a2.33 2.33 0 0 1-1.52-.56q-.64-.6-.64-1.4 0-.36.08-.64.12-.32.52-.64a1.4 1.4 0 0 0-.36-.12.7.7 0 0 0-.32-.08q-1.28 0-1.4 1.76 1.4 1.04 2.12 2.4.76 1.32.76 3 0 2.84-2.2 4.76-2.12 1.88-5.32 1.88-1.16 0-2.32-.24a10.1 10.1 0 0 1-2.28-.8q-.6-.2-.76-.2-.28 0-.52.32-.2.28-.2.72 0 1.44 3.32 1.44h.48q.16 0 .36-.04h.52q3.68 0 6.04.72 2.28.72 3.6 2.2 1.36 1.48 1.36 3.4 0 1.52-.72 2.72-.68 1.2-2 2.04t-3.2 1.28q-1.881.44-4.2.44-4.68 0-7.32-1.64t-2.64-4.56q0-2.84 2.8-4.36-2.4-1.28-2.4-3.64 0-1.28.76-2.28.759-1 2.04-1.6a4.3 4.3 0 0 1-.6-1.36 8.5 8.5 0 0 1-.12-1.48q0-2.76 2.2-4.72 2.16-1.8 5.4-1.8m.12 3.56q-1.4 0-2.4.84t-1.08 2.12v.16q0 1.48.96 2.36.96.84 2.48.84 1.64 0 2.64-.84 1-.88 1-2.28t-1.04-2.28q-1.04-.92-2.56-.92m.04 14.68q-2.76 0-4.32.8-1.56.76-1.56 2.04 0 1.32 1.52 2.04 1.52.76 4.12.76 2.76 0 4.32-.76 1.6-.76 1.6-2.04 0-1.32-1.52-2.08-1.48-.76-4.16-.76m19.356-4.2v1.48q0 .52.04.72.12 1.2.36 1.2-.04 0 .2-.04t.6-.12l-.04.04q.12-.04.28-.08.2-.04.48-.04 2.08 0 2.08 1.76 0 .8-.68 1.32-.64.52-1.64.52a10 10 0 0 1-.8-.04q-.48-.04-1.12-.12-.6-.08-1.04-.12a4 4 0 0 0-.72-.08q-.44 0-1 .04-.52.04-1.12.12-.72.08-1.24.12-.48.08-.8.08-2.16 0-2.16-1.84 0-1.76 1.96-1.76.08 0 .44.04.4.04.64.08.28.08.44.08h.24q.32 0 .44-1.92v-9.64q-.12-1.88-.48-1.88-.08 0-.28.04a6 6 0 0 0-.48.12 2 2 0 0 1-.48.12h-.4q-2.04 0-2.04-1.76 0-1.8 2.32-1.8h.72q.28 0 .4.04.56.08.92.12.4.04.52.04h.32q.28-.04.52-.08l1.04-.12q1.72 0 1.72 2v.56q-.04.16-.04.28v.12q-.04.12-.04 1.12 0 .28-.04.6v.6a32 32 0 0 0-.04 1.6v6.48m1.84-19.12q0 1.24-1.72 2l-5.44 2.4a3 3 0 0 1-.36.12h-.36q-1.44 0-1.44-1.44 0-.72 1.12-1.44l4.76-3a3 3 0 0 1 .72-.32q.44-.16.76-.16 1.96 0 1.96 1.84m7.423 26.36q-1.281 0-2.16-.84t-.88-2.12q0-1.24.88-2.08.879-.88 2.16-.88 1.28 0 2.16.88.88.84.88 2.08 0 1.28-.88 2.12t-2.16.84m0-12.96q-1.281 0-2.16-.84a2.89 2.89 0 0 1-.88-2.12q0-1.24.88-2.08.879-.88 2.16-.88 1.28 0 2.16.88.88.84.88 2.08t-.88 2.12q-.88.84-2.16.84m22.217-7.64q1.36 0 1.56 1.2 2.12-1.88 5.16-1.88 2.04 0 3.68.72a7.9 7.9 0 0 1 2.8 2.04q1.2 1.32 1.8 3.24.64 1.88.64 4.24 0 2.4-.72 4.44-.68 2.04-1.84 3.56-1.24 1.52-2.96 2.28t-3.84.76q-2.76 0-4.68-1.44v2.88q0 .44.04.64v-.04q.16.76.48.76.16 0 .56-.08.28-.04.68-.08.44-.04.4-.04 1.8 0 1.8 1.76 0 1.8-2.24 1.8a10 10 0 0 1-.8-.04 20 20 0 0 1-1-.12h.04q-.92-.12-2.44-.12h-.76q-.36.04-.68.08h-.16q-.04.04-.12.04-.6.08-1.08.12t-.72.04q-.92 0-1.56-.56-.64-.52-.64-1.32 0-1.72 1.92-1.72h.4l.48.08q.52.16.8.16.16 0 .24-.32.08-.44.12-1.44.04-.96.08-2.56V59.4q.04-3.68.04-7.32-.04-1.24-.32-1.24-.2 0-.6.12-.28.08-.52.12t-.56.04q-2.04 0-2.04-1.8 0-1.72 2.32-1.72h.48q.28 0 .48.04.16 0 .28.04h.28q.28.04.44.04h.72l.56-.08q.32-.04.56-.04Zm2.16 6.32a11 11 0 0 0-.28 1.68q-.08.84-.12 1.8v.32q0 .16-.04.32v.48q0 1.24.08 2.12.12.88.32 1.44.16.52.52.96.4.44.88.8.56.36 1.24.6.68.2 1.44.2 2.44 0 3.76-1.84t1.32-5.28q0-7.04-4.72-7.04-1.56 0-2.84.96a4.12 4.12 0 0 0-1.56 2.48m23.664 7.04v1.48q0 .52.04.72.12 1.2.36 1.2-.04 0 .2-.04t.6-.12l-.04.04q.12-.04.28-.08.201-.04.48-.04 2.08 0 2.08 1.76 0 .8-.68 1.32-.64.52-1.64.52a10 10 0 0 1-.8-.04q-.48-.04-1.12-.12-.6-.08-1.04-.12a4 4 0 0 0-.72-.08q-.44 0-1 .04-.52.04-1.12.12-.72.08-1.24.12-.48.08-.8.08-2.16 0-2.16-1.84 0-1.76 1.96-1.76.08 0 .44.04.4.04.64.08.28.08.44.08h.24q.32 0 .44-1.92v-9.64q-.12-1.88-.48-1.88-.08 0-.28.04a6 6 0 0 0-.48.12 2 2 0 0 1-.48.12h-.4q-2.04 0-2.04-1.76 0-1.8 2.32-1.8h.72q.28 0 .4.04.56.08.92.12.4.04.52.04h.32q.28-.04.52-.08l1.04-.12q1.72 0 1.72 2v.56q-.04.16-.04.28v.12q-.04.12-.04 1.12 0 .28-.04.6v.6q-.04.8-.04 1.6v6.48m-2.64-14.32q-1.16 0-1.96-.76a2.5 2.5 0 0 1-.8-1.88q0-1.12.8-1.84.8-.76 1.96-.76t1.96.76q.84.72.84 1.84t-.84 1.88q-.8.76-1.96.76m26.183 9.24q0 .92-.04 1.44-.039.52-.24.8t-.6.36q-.36.04-1.04.04h-12.04q-.16 0-.16.04 0 2.68 1.56 4.36 1.48 1.72 3.72 1.72 1.48 0 2.68-.8t1.56-2.04l.36-1.08q.24-.6.68-.96.48-.36 1.16-.36 2.08 0 2.08 2 0 2.72-2.8 4.8-2.68 2-6.04 2-4.32 0-6.84-2.84-2.48-2.84-2.48-7.52 0-4.72 2.64-7.84 2.68-3.08 7-3.08 2 0 3.56.64a8.5 8.5 0 0 1 2.8 1.88q2.48 2.6 2.48 6.44m-4.36-.96q0-1.8-1.32-3.12-1.4-1.32-3.12-1.32-1.76 0-3.44 1.44-1.52 1.4-1.52 3Zm16.173-8q1.52 0 2.76.48 1.28.44 2.24 1.24v-2.12q0-.72-.04-1.12 0-.44-.04-.64-.12-.52-.32-.68a4 4 0 0 1-.48.08h-.44.08q-.24.08-.52.12h-.44q-2.08 0-2.08-1.76 0-1.8 2.56-1.8h.28q.2 0 .4.04.12 0 .24.04h.24l1.2.12h.32l.56-.08q.32-.04.56-.04.28-.04.52-.04 1.72 0 1.72 2.08v.6q-.04.04-.04.8 0 .2-.04.48v.52q0 .32-.12 2.96 0 .2-.04.44v.4q-.04.64-.04 1.16v4.56l.08 6.32q.04 1.28.08 2t.12.96q0 .24.28.24h.32l.32-.08h.24a.7.7 0 0 1 .2-.04.56.56 0 0 1 .24-.04h.28q2.04 0 2.04 1.76 0 1.84-2.36 1.84-.2 0-.56-.04-.32 0-.64-.04-.16 0-.36-.04-.16 0-.36-.04a2.2 2.2 0 0 0-.44-.04q-.04 0-.08.04h-.32q-.12 0-.32.04h.08q-.48.12-.96.12-1.28 0-1.6-1.24-2 1.72-5.24 1.72-4.24 0-6.68-3-2.52-2.92-2.52-7.68 0-2.32.64-4.28.68-1.96 1.84-3.36 2.48-2.96 6.64-2.96m4.76 13.84q.08-.64.12-1.4.04-.8.04-1.76 0-1.24-.08-2.04-.04-.84-.12-1.28-.32-1.84-1.4-2.68-1.44-1.12-3.08-1.12-2.36 0-3.68 1.88-1.32 1.84-1.32 5.08 0 3.4 1.36 5.32 1.4 1.88 3.8 1.88 1.8 0 2.96-1.04 1.2-1.08 1.4-2.84m15.424-13.16q1.32 0 1.56 1.04 1.96-1.72 4.68-1.72 1.48 0 2.68.44a5.75 5.75 0 0 1 2.08 1.2 5.2 5.2 0 0 1 1.36 1.84q.48 1.08.48 2.4 0 1.92-1 3.12-1 1.16-2.68 1.16-1.16 0-1.96-.68-.76-.68-.76-1.68 0-.8.64-1.44.68-.64 1.52-.64.08 0-.04-.04-.08-.04.12.04v-.2q0-.88-.8-1.48-.759-.6-1.92-.6-2.52 0-3.36 2.32-.56 1.6-.56 4.72v4.36q0 .68.04.84.2 1.76.52 1.76h.44l.4-.08q.52-.16.92-.16 1.84 0 1.84 1.72 0 1.88-2.2 1.88h-.12a10 10 0 0 1-.8-.04q-.44-.04-1.04-.12-1.16-.12-1.64-.12-.759 0-1.32.04-.56 0-1 .04l-2.16.2q-2.2 0-2.2-1.88 0-1.68 2.08-1.68h.32a.6.6 0 0 1 .36.04l.48.12h.32q.04.04.12.04h.04q.36 0 .4-1.2 0-.48.04-.96t.04-.96l-.12-8.6q-.08-1.48-.4-1.68-.08 0-.4.04a4 4 0 0 1-.44.04h.08q-.48.12-1 .12-1.88 0-1.88-1.76 0-1.84 2.24-1.84.081.04.48.08.4 0 .72.04.321.04.6.08h.68q.16 0 .36-.04h.12a.45.45 0 0 1 .2-.04q.4-.08.84-.08m31.249 20.44q-2.96 0-4-2-2.12 2.16-5.88 2.16-3.4 0-5.4-1.64-2-1.68-2-4.44 0-1.68.8-2.96a6.33 6.33 0 0 1 2.24-2.12q1.08-.6 1.88-.8.76-.2 3.08-.48 3.04-.32 3.88-.84.68-.48.68-1.8 0-1.28-.92-2.04-.88-.76-2.52-.76a4.9 4.9 0 0 0-2.84.88v-.04q-.28.28-.28.32h.04q.84.72.84 1.72t-.76 1.64q-.72.64-1.84.64-1.28 0-2.12-.8-.84-.84-.84-2.08 0-2.4 2.36-4.04 2.24-1.64 5.48-1.64 7.56 0 7.56 7.16v9q.04.52.08.72.2.88.64.88.68 0 .68-1.88v-1.88q0-1.72 1.8-1.72 1.92 0 1.92 2.32v.2l-.04 2.16q-.08 4.16-4.52 4.16m-4.8-9.56q-.24.08-.48.2a5 5 0 0 1-.48.16q-1.08.36-3.4.56-3.76.36-3.76 2.68 0 1.16.84 1.88.88.68 2.4.68 2.28 0 3.52-1.24 1.28-1.24 1.32-3.4Zm14.458 9.72h-.76q-1.16 0-1.96-.8-.76-.8-.76-2 0-1.36.96-2.24t2.4-.88q1.68 0 2.68 1.24 1.04 1.2 1.04 3.16 0 1.56-.64 3.12-.6 1.56-1.76 3.2-1.16 1.6-2.24 1.6-1.4 0-1.4-1.32 0-.4.4-1 2.04-2.64 2.04-3.96ZM22.764 87.6q1.359 0 1.56 1.2 2.12-1.88 5.16-1.88 2.04 0 3.68.72a7.9 7.9 0 0 1 2.8 2.04q1.2 1.32 1.8 3.24.64 1.88.64 4.24 0 2.4-.72 4.44-.68 2.04-1.84 3.56a7.9 7.9 0 0 1-2.96 2.28q-1.72.76-3.84.76-2.76 0-4.68-1.44v2.88q0 .44.04.64v-.04q.159.76.48.76.16 0 .56-.08.28-.04.68-.08.44-.04.4-.04 1.8 0 1.8 1.76 0 1.8-2.24 1.8-.32 0-.8-.04a21 21 0 0 1-1-.12h.04q-.92-.12-2.44-.12h-.76q-.36.04-.68.08h-.16q-.04.04-.12.04-.6.08-1.08.12t-.72.04q-.921 0-1.56-.56-.64-.52-.64-1.32 0-1.72 1.92-1.72h.4l.48.08q.52.16.8.16.159 0 .24-.32.08-.44.12-1.44.04-.96.08-2.56V99.4q.04-3.68.04-7.32-.04-1.24-.32-1.24-.201 0-.6.12-.28.08-.52.12t-.56.04q-2.04 0-2.04-1.8 0-1.72 2.32-1.72h.48q.279 0 .48.04.16 0 .28.04h.28q.28.04.44.04h.72l.56-.08q.32-.04.56-.04Zm2.16 6.32a11 11 0 0 0-.28 1.68q-.081.84-.12 1.8v.32q0 .16-.04.32v.48q0 1.24.08 2.12.12.88.32 1.44.16.52.52.96.4.44.88.8.56.36 1.24.6.68.2 1.44.2 2.44 0 3.76-1.84t1.32-5.28q0-7.04-4.72-7.04-1.56 0-2.84.96a4.12 4.12 0 0 0-1.56 2.48m33.304 14.12q-2.96 0-4-2-2.12 2.16-5.88 2.16-3.4 0-5.4-1.64-2-1.68-2-4.44 0-1.68.8-2.96a6.3 6.3 0 0 1 2.24-2.12q1.08-.6 1.88-.8.76-.2 3.08-.48 3.04-.32 3.88-.84.68-.48.68-1.8 0-1.28-.92-2.04-.88-.76-2.52-.76-1.56 0-2.84.88v-.04q-.28.28-.28.32h.04q.84.72.84 1.72t-.76 1.64q-.72.64-1.84.64-1.28 0-2.12-.8-.84-.84-.84-2.08 0-2.4 2.36-4.04 2.24-1.64 5.48-1.64 7.56 0 7.56 7.16v9q.04.52.08.72.2.88.64.88.68 0 .68-1.88v-1.88q0-1.72 1.8-1.72 1.92 0 1.92 2.32v.2l-.04 2.16q-.08 4.16-4.52 4.16m-4.8-9.56q-.24.08-.48.2a5 5 0 0 1-.48.16q-1.08.36-3.4.56-3.76.36-3.76 2.68 0 1.16.84 1.88.88.68 2.4.68 2.28 0 3.52-1.24 1.281-1.24 1.32-3.4ZM69.326 87.6q1.36 0 1.56 1.2 2.121-1.88 5.16-1.88 2.04 0 3.68.72a7.9 7.9 0 0 1 2.8 2.04q1.2 1.32 1.8 3.24.64 1.88.64 4.24 0 2.4-.72 4.44-.68 2.04-1.84 3.56a7.9 7.9 0 0 1-2.96 2.28q-1.719.76-3.84.76-2.76 0-4.68-1.44v2.88q0 .44.04.64v-.04q.16.76.48.76.16 0 .56-.08.28-.04.68-.08.44-.04.4-.04 1.8 0 1.8 1.76 0 1.8-2.24 1.8-.32 0-.8-.04a21 21 0 0 1-1-.12h.04q-.92-.12-2.44-.12h-.76q-.36.04-.68.08h-.16q-.039.04-.12.04-.6.08-1.08.12t-.72.04q-.92 0-1.56-.56-.64-.52-.64-1.32 0-1.72 1.92-1.72h.4l.48.08q.52.16.8.16.16 0 .24-.32.081-.44.12-1.44.04-.96.08-2.56V99.4q.04-3.68.04-7.32-.04-1.24-.32-1.24-.2 0-.6.12-.28.08-.52.12t-.56.04q-2.04 0-2.04-1.8 0-1.72 2.32-1.72h.48q.28 0 .48.04.16 0 .28.04h.28q.28.04.44.04h.72l.56-.08q.32-.04.56-.04Zm2.16 6.32a11 11 0 0 0-.28 1.68q-.08.84-.12 1.8v.32q0 .16-.04.32v.48q0 1.24.08 2.12.12.88.32 1.44.16.52.52.96.4.44.88.8.56.36 1.24.6.681.2 1.44.2 2.44 0 3.76-1.84t1.32-5.28q0-7.04-4.72-7.04-1.56 0-2.84.96a4.12 4.12 0 0 0-1.56 2.48m34.825 1.96q0 .92-.04 1.44t-.24.8q-.201.28-.6.36-.36.04-1.04.04h-12.04q-.16 0-.16.04 0 2.68 1.56 4.36 1.479 1.72 3.72 1.72a4.73 4.73 0 0 0 2.68-.8q1.2-.8 1.56-2.04l.36-1.08q.24-.6.68-.96.48-.36 1.16-.36 2.08 0 2.08 2 0 2.72-2.8 4.8-2.68 2-6.04 2-4.32 0-6.84-2.84-2.48-2.84-2.48-7.52 0-4.72 2.64-7.84 2.68-3.08 7-3.08 2 0 3.56.64a8.5 8.5 0 0 1 2.8 1.88q2.48 2.6 2.48 6.44m-4.36-.96q0-1.8-1.32-3.12-1.401-1.32-3.12-1.32-1.76 0-3.44 1.44-1.52 1.4-1.52 3Zm14.132 8.04q.04 1.4.36 1.4.08 0 .2-.04h.16q.12-.04.28-.08h.16a.35.35 0 0 1 .16-.04h.08q0-.04.08-.04a.44.44 0 0 1 .2-.04h.24q1.88 0 1.88 1.8t-2.2 1.8q-.32 0-.84-.04-.48-.04-1.16-.12a26 26 0 0 0-1.16-.12 10 10 0 0 0-.8-.04q-.279 0-.72.04t-1.04.12q-.56.08-1.04.12t-.8.04h-.2q-2.24 0-2.24-1.92 0-1.68 1.96-1.68h.4q.16.04.32.04.48.08.68.12t.28.04q.16 0 .24-.2.081-.28.12-1 .04-.72.08-1.92v-1.32q.04-.68.04-1.32l.12-5.88v-1.52q0-.88-.04-1.84v-3.36l-.12-1.52a1.6 1.6 0 0 0-.2-.24q-.12-.12-.24-.12-.039 0-.96.16-.2.04-.36.04h-.32q-1.96 0-1.96-1.72 0-1.8 2.16-1.8h.44q.28 0 .4.04l.8.12q.08 0 .16.04h.16q.201.04.36.04h.72q.32-.04.64-.12.36-.08.64-.12a5 5 0 0 1 .64-.04q1.48 0 1.48 1.64v.36q.04.12-.04.28-.24 2.96-.24 8.2Zm24.584 5.24q-4.28 0-6.84-2.92t-2.56-7.72q0-4.84 2.56-7.68 2.56-2.96 6.96-2.96t7 2.88q2.52 2.84 2.52 7.64 0 4.88-2.6 7.76-2.6 3-7.04 3m.2-17.72q-2.4 0-3.76 1.72-1.32 1.72-1.44 4.92v.44q0 3.32 1.32 5.2t3.72 1.88q2.44 0 3.84-1.84 1.44-1.88 1.44-5.28 0-7.04-5.12-7.04m32.676 8.88q.08-2.08 2.04-2.08t1.96 2.28q0 2.16-.32 3.68-.32 1.48-.88 2.4-1.6 2.4-5.24 2.4-1.68 0-2.92-.56a4.7 4.7 0 0 1-1.92-1.6q-1.08-1.64-1.08-5.08v-9.08q0-.28-.08-.28h-1.2q-.88 0-1.48-.52a1.85 1.85 0 0 1-.56-1.36q0-.72.56-1.28.6-.6 1.36-.6h1.48V83.6q0-2 2.12-2 2 0 2 2v4.04q0 .04.04.04h4.12q2.08 0 2.08 1.84 0 1.92-2.16 1.92h-4.2q.12.08.12.28v9.32q0 3.44 1.96 3.44 2.12 0 2.12-2.68Zm12.936 1.6v1.48q0 .52.04.72.12 1.2.36 1.2-.04 0 .2-.04t.6-.12l-.04.04q.12-.04.28-.08.2-.04.48-.04 2.08 0 2.08 1.76 0 .8-.68 1.32-.64.52-1.64.52-.32 0-.8-.04a29 29 0 0 1-1.12-.12q-.6-.08-1.04-.12a4 4 0 0 0-.72-.08q-.44 0-1 .04-.52.04-1.12.12-.72.08-1.24.12-.48.08-.8.08-2.16 0-2.16-1.84 0-1.76 1.96-1.76.08 0 .44.04.4.04.64.08.28.08.44.08h.24q.32 0 .44-1.92v-9.64q-.12-1.88-.48-1.88-.08 0-.28.04a6 6 0 0 0-.48.12 2 2 0 0 1-.48.12h-.4q-2.04 0-2.04-1.76 0-1.8 2.32-1.8h.72q.28 0 .4.04.56.08.92.12.4.04.52.04h.32q.28-.04.52-.08l1.04-.12q1.72 0 1.72 2v.56q-.04.16-.04.28v.12q-.04.12-.04 1.12 0 .28-.04.6v.6a32 32 0 0 0-.04 1.6v6.48m-2.64-14.32q-1.16 0-1.96-.76t-.8-1.88.8-1.84q.8-.76 1.96-.76t1.96.76q.84.72.84 1.84t-.84 1.88q-.8.76-1.96.76m6.155 23.48q0 .36-.12.68-.12.36-.32.68.279.16.6.24.32.12.6.12 1.8 0 2.56-1.12.8-1.12.8-3.6V95.2q0-3.32-.16-3.96-.04-.4-.4-.4-.12 0-.36.04-.2.04-.52.12v-.04q-.2.08-.44.12a2 2 0 0 1-.4.04q-1.88 0-1.88-1.76t2.24-1.76h.6q.279 0 .48.04 1.2.12 1.6.12h.32l.56-.08q.28-.04.68-.08.44-.04.36-.04 1.72 0 1.72 1.76v.28q0 .2-.04.48-.04.36-.04.64v.48q-.04.32-.04 1 0 .64-.04 1.68 0 .32-.04.6V95q-.04.8-.04 1.44v9.68q0 1.2-.08 2.04a16 16 0 0 1-.12 1.44 8.7 8.7 0 0 1-.56 1.72 6.3 6.3 0 0 1-.96 1.56q-2 2.36-5.56 2.36a7.4 7.4 0 0 1-2.36-.36 5.9 5.9 0 0 1-1.88-.92q-.8-.6-1.24-1.44a3.36 3.36 0 0 1-.48-1.76q0-1.16.76-1.96.72-.8 1.84-.8.96 0 1.68.6.68.64.68 1.52m5.72-23.48q-1.16 0-1.96-.76t-.8-1.88.8-1.84q.8-.76 1.96-.76t1.96.8q.84.76.84 1.8 0 1.12-.84 1.88-.8.76-1.96.76m25.44 9.24q0 .92-.04 1.44-.039.52-.24.8t-.6.36q-.36.04-1.04.04h-12.04q-.16 0-.16.04 0 2.68 1.56 4.36 1.48 1.72 3.72 1.72 1.48 0 2.68-.8t1.56-2.04l.36-1.08q.24-.6.68-.96.48-.36 1.16-.36 2.08 0 2.08 2 0 2.72-2.8 4.8-2.68 2-6.04 2-4.32 0-6.84-2.84-2.48-2.84-2.48-7.52 0-4.72 2.64-7.84 2.68-3.08 7-3.08 2 0 3.56.64a8.5 8.5 0 0 1 2.8 1.88q2.48 2.6 2.48 6.44m-4.36-.96q0-1.8-1.32-3.12-1.4-1.32-3.12-1.32-1.76 0-3.44 1.44-1.52 1.4-1.52 3Zm12.373-7.32q1.32 0 1.56 1.04 1.96-1.72 4.68-1.72 1.48 0 2.68.44a5.75 5.75 0 0 1 2.08 1.2 5.2 5.2 0 0 1 1.36 1.84q.48 1.08.48 2.4 0 1.92-1 3.12-1 1.16-2.68 1.16-1.16 0-1.96-.68-.76-.68-.76-1.68 0-.8.64-1.44.68-.64 1.52-.64.08 0-.04-.04-.08-.04.12.04v-.2q0-.88-.8-1.48-.759-.6-1.92-.6-2.52 0-3.36 2.32-.56 1.6-.56 4.72v4.36q0 .68.04.84.2 1.76.52 1.76h.44l.4-.08q.52-.16.92-.16 1.84 0 1.84 1.72 0 1.88-2.2 1.88h-.12q-.32 0-.8-.04-.44-.04-1.04-.12-1.16-.12-1.64-.12-.759 0-1.32.04-.56 0-1 .04l-2.16.2q-2.2 0-2.2-1.88 0-1.68 2.08-1.68h.32a.6.6 0 0 1 .36.04l.48.12h.32q.04.04.12.04h.04q.36 0 .4-1.2 0-.48.04-.96t.04-.96l-.12-8.6q-.08-1.48-.4-1.68-.08 0-.4.04a4 4 0 0 1-.44.04h.08q-.48.12-1 .12-1.88 0-1.88-1.76 0-1.84 2.24-1.84.081.04.48.08.4 0 .72.04.321.04.6.08h.68q.16 0 .36-.04h.12a.45.45 0 0 1 .2-.04q.4-.08.84-.08m31.249 20.44q-2.96 0-4-2-2.121 2.16-5.88 2.16-3.4 0-5.4-1.64-2-1.68-2-4.44 0-1.68.8-2.96a6.3 6.3 0 0 1 2.24-2.12q1.08-.6 1.88-.8.76-.2 3.08-.48 3.04-.32 3.88-.84.68-.48.68-1.8 0-1.28-.92-2.04-.88-.76-2.52-.76a4.9 4.9 0 0 0-2.84.88v-.04q-.28.28-.28.32h.04q.84.72.84 1.72a2.05 2.05 0 0 1-.76 1.64q-.72.64-1.84.64-1.28 0-2.12-.8-.84-.84-.84-2.08 0-2.4 2.36-4.04 2.24-1.64 5.48-1.64 7.56 0 7.56 7.16v9q.04.52.08.72.2.88.64.88.68 0 .68-1.88v-1.88q0-1.72 1.8-1.72 1.92 0 1.92 2.32v.2l-.04 2.16q-.08 4.16-4.52 4.16m-4.8-9.56q-.24.08-.48.2a5 5 0 0 1-.48.16q-1.08.36-3.4.56-3.76.36-3.76 2.68 0 1.16.84 1.88.879.68 2.4.68 2.28 0 3.52-1.24 1.28-1.24 1.32-3.4Zm-216.02 49.56q-2.96 0-4-2-2.121 2.16-5.88 2.16-3.4 0-5.4-1.64-2-1.68-2-4.44 0-1.68.8-2.96a6.3 6.3 0 0 1 2.24-2.12q1.08-.6 1.88-.8.76-.2 3.08-.48 3.04-.32 3.88-.84.68-.48.68-1.8 0-1.28-.92-2.04-.88-.76-2.52-.76a4.9 4.9 0 0 0-2.84.88v-.04q-.28.28-.28.32h.04q.84.72.84 1.72t-.76 1.64q-.72.64-1.84.64-1.28 0-2.12-.8-.84-.84-.84-2.08 0-2.4 2.36-4.04 2.24-1.64 5.48-1.64 7.56 0 7.56 7.16v9q.04.52.08.72.2.88.64.88.68 0 .68-1.88v-1.88q0-1.72 1.8-1.72 1.92 0 1.92 2.32v.2l-.04 2.16q-.08 4.16-4.52 4.16m-4.8-9.56q-.24.08-.48.2a5 5 0 0 1-.48.16q-1.08.36-3.4.56-3.76.36-3.76 2.68 0 1.16.84 1.88.879.68 2.4.68 2.28 0 3.52-1.24 1.28-1.24 1.32-3.4Zm15.817-10.88q1.48 0 1.72 1.24 2.16-1.92 5.44-1.92 2.241 0 4.2 1.12h-.04q2.08 1.2 2.76 2.84.6 1.4.6 3.56v9.08q.04.64.28.8h.52q.32-.04.52-.08a2 2 0 0 1 .36-.04q.16-.04.4-.04.72 0 1.28.52.56.48.56 1.16 0 .8-.64 1.36-.639.52-1.56.52-.2 0-.64-.04-.399 0-.84-.08-.6-.08-1.32-.12-.68-.08-1.2-.08-.399 0-.84.04-.399 0-.72.04a24 24 0 0 1-1.44.16q-.56.08-.64.08-2.16 0-2.16-1.88 0-1.68 1.92-1.68a1.3 1.3 0 0 0 .32.04q.16 0 .28.04h.32q.2.04.32.08h.2a.6.6 0 0 0 .16.04q.28 0 .32-1.52 0-.48.04-.96.04-.52.04-1l.04-2.28v-2.88q0-1.8-.2-2.68-.12-.6-.44-1.08a2.9 2.9 0 0 0-.76-.84v.04q-1.16-.8-2.44-.8-2.679 0-3.84 1.88-.8 1.36-.8 4.8v5.04q0 1.36.08 1.84.12.48.36.48.04 0 .24-.04t.44-.08q.24-.08.44-.12.24-.04.56-.04 1.84 0 1.84 1.8t-2.16 1.8q-.2 0-.8-.08-.56-.08-1.28-.16a12 12 0 0 0-2.64-.08q-.48.04-1.16.12l-.88.08a3 3 0 0 1-.68.08q-.32.04-.4.04-2.24 0-2.24-1.84 0-1.72 1.84-1.72.2 0 .32.04.16 0 .32.04.52.12 1.08.12.48 0 .52-1.64 0-1.04.04-2.08.04-1.08.04-2.12v-4.6l-.08-1.32q-.08-.88-.16-1.24-.08-.4-.28-.48-.08.04-.36.08a2 2 0 0 0-.44.04q-.24.04-.44.08h-.4q-2 0-2-1.76t2.32-1.76h.24q.12-.04.28.04l1.32.16h.44q.28-.04.52-.08.32-.04.52-.04.24-.04.56-.04m30.47 11.76q.079-2.08 2.04-2.08t1.96 2.28q-.001 2.16-.32 3.68-.322 1.48-.88 2.4-1.6 2.4-5.24 2.4-1.68 0-2.92-.56a4.7 4.7 0 0 1-1.92-1.6q-1.08-1.64-1.08-5.08v-9.08q-.001-.28-.08-.28h-1.2q-.88 0-1.48-.52a1.85 1.85 0 0 1-.56-1.36q0-.72.56-1.28.6-.6 1.36-.6h1.48v-4.08q0-2 2.12-2 1.999 0 2 2v4.04q0 .04.04.04h4.12q2.08 0 2.08 1.84 0 1.92-2.16 1.92h-4.2q.12.08.12.28v9.32q0 3.44 1.96 3.44 2.12 0 2.12-2.68Zm24.095-3.48q0 .92-.04 1.44t-.24.8-.6.36q-.36.04-1.04.04h-12.04q-.16 0-.16.04 0 2.68 1.56 4.36 1.48 1.72 3.72 1.72 1.48 0 2.68-.8t1.56-2.04l.36-1.08q.24-.6.68-.96.48-.36 1.16-.36 2.08 0 2.08 2 0 2.72-2.8 4.8-2.68 2-6.04 2-4.32 0-6.84-2.84-2.48-2.84-2.48-7.52 0-4.72 2.64-7.84 2.68-3.08 7-3.08 2 0 3.56.64a8.5 8.5 0 0 1 2.8 1.88q2.48 2.6 2.48 6.44m-4.36-.96q0-1.8-1.32-3.12-1.401-1.32-3.12-1.32-1.76 0-3.44 1.44-1.52 1.4-1.52 3Zm15.613-8q2.199 0 3.72.88.36-1.12 1.76-1.12 1.88 0 1.88 1.76a.4.4 0 0 1-.04.16v.28q0 .16-.04.4v.4a6.4 6.4 0 0 0-.16 1.4q0 .52.12 1.24.08.44.12.8.04.32.04.6 0 2-1.88 2-1.84 0-1.92-1.72l-.04-1.28q-.04-.92-1.12-1.56-1.041-.68-2.52-.68-1.44 0-2.44.72t-1 1.84q0 .96.76 1.56.76.56 2 .8.56.08 1.08.16l1.12.16q7.04.96 7.04 5.84 0 2.92-2.36 4.88-2.32 1.76-5.84 1.76-2.64 0-4.8-1.2-.201 1.52-1.92 1.52-2.04 0-2.04-2.08.08-.6.12-.96.08-.36.12-.64t.04-.56q.04-.32.04-.88 0-.44-.08-.92a10 10 0 0 0-.12-.96 4.8 4.8 0 0 1-.12-1.08q0-1.84 1.88-1.84 1.28 0 1.56.68.28.6.32 2.2.04 1.4 1.48 2.28 1.479.88 3.84.88 1.56 0 2.56-.76 1.04-.8 1.04-2.04 0-2.12-3.52-2.48a35 35 0 0 1-3.68-.6q-1.6-.4-2.68-1.04-1.08-.68-1.64-1.72t-.56-2.6q0-1.44.56-2.64.6-1.2 1.64-2.04t2.48-1.32 3.2-.48m30.247 0q1.52 0 2.76.48 1.28.44 2.24 1.24v-2.12q0-.72-.04-1.12 0-.44-.04-.64-.12-.52-.32-.68a4 4 0 0 1-.48.08h-.44.08q-.24.08-.52.12h-.44q-2.08 0-2.08-1.76 0-1.8 2.56-1.8h.28q.2 0 .4.04.12 0 .24.04h.24l1.2.12h.32l.56-.08q.32-.04.56-.04.28-.04.52-.04 1.72 0 1.72 2.08v.6q-.04.04-.04.8 0 .2-.04.48v.52q0 .32-.12 2.96 0 .2-.04.44v.4q-.04.64-.04 1.16v4.56l.08 6.32q.04 1.28.08 2t.12.96q0 .24.28.24h.32l.32-.08h.24a.7.7 0 0 1 .2-.04.55.55 0 0 1 .24-.04h.28q2.04 0 2.04 1.76 0 1.84-2.36 1.84a5 5 0 0 1-.56-.04q-.32 0-.64-.04-.16 0-.36-.04-.16 0-.36-.04a2.2 2.2 0 0 0-.44-.04q-.04 0-.08.04h-.32q-.12 0-.32.04h.08q-.48.12-.96.12-1.28 0-1.6-1.24-2 1.72-5.24 1.72-4.24 0-6.68-3-2.52-2.92-2.52-7.68 0-2.32.64-4.28.68-1.96 1.84-3.36 2.48-2.96 6.64-2.96m4.76 13.84q.08-.64.12-1.4.04-.8.04-1.76 0-1.24-.08-2.04-.04-.84-.12-1.28-.32-1.84-1.4-2.68-1.44-1.12-3.08-1.12-2.36 0-3.68 1.88-1.32 1.84-1.32 5.08 0 3.4 1.36 5.32 1.4 1.88 3.8 1.88 1.8 0 2.96-1.04 1.2-1.08 1.4-2.84m28.545-4.88q0 .92-.04 1.44t-.24.8-.6.36q-.36.04-1.04.04h-12.041q-.159 0-.159.04 0 2.68 1.56 4.36 1.479 1.72 3.72 1.72a4.73 4.73 0 0 0 2.68-.8q1.2-.8 1.56-2.04l.359-1.08q.24-.6.681-.96.48-.36 1.159-.36 2.08 0 2.081 2 0 2.72-2.8 4.8-2.68 2-6.041 2-4.318 0-6.84-2.84-2.48-2.84-2.48-7.52 0-4.72 2.64-7.84 2.68-3.08 7.001-3.08 1.999 0 3.56.64a8.5 8.5 0 0 1 2.8 1.88q2.48 2.6 2.48 6.44m-4.36-.96q0-1.8-1.32-3.12-1.401-1.32-3.12-1.32-1.76 0-3.44 1.44-1.52 1.4-1.52 3Zm30.692 11.92q-.96.72-2.08 1.04-1.119.32-2.52.32-4.08 0-6.56-2.96-2.48-2.88-2.48-7.76 0-2.4.56-4.32.6-1.92 1.8-3.32 2.4-2.92 6.52-2.92 1.48 0 2.76.48 1.32.48 2.44 1.4.32-1.4 1.88-1.4 1.92 0 1.92 2.52v.8l-.16 4.48v7.24l.12 5.44q.04 1 .08 1.76.08.8.16 1.08.081.24.24.28l.4-.08q.24-.04.52-.08.04 0 .08-.04h.16-.08.56q1.88 0 1.88 1.76 0 1.8-2.08 1.8-.72 0-2.08-.12-1.32-.12-2-.12h-.84q-.52.04-1.16.12-.6.08-1.16.08-.519.04-.84.04-2.04 0-2.04-1.8 0-1.76 1.92-1.76.28 0 .64.04t.72.12h.08q0 .04.08.04h.12q.04.04.08.04.2 0 .32-1.28.04-.12.04-.76v-2.16m-.04-9.36a36 36 0 0 0-.12-2.16q-.04-.88-.2-1.32-.48-1.72-1.76-2.68-1.16-.84-2.52-.84-2.16 0-3.4 1.84-1.24 1.8-1.24 5.08 0 3.44 1.24 5.36 1.28 1.88 3.56 1.88 1.68 0 2.92-1.12t1.44-2.76v.04q.04-.32.04-.88.04-.56.04-1.36Zm25.709 10.24q-1.52 0-1.72-1.24-2.08 1.72-5.28 1.72-4.84 0-6.76-3.04a6 6 0 0 1-.64-1.44 6.7 6.7 0 0 1-.28-1.6q-.04-.48-.04-1.36v-5.16q0-4.68-.48-4.68-.081 0-.24.04-.16 0-.36.04a7 7 0 0 1-.6.08q-.36.04-.28.04-1.96 0-1.96-1.8 0-1.72 2.28-1.72.2 0 .48.04.32 0 .64.04t.6.08h.96q.32-.04.64-.12.16-.04.32-.04.16-.04.4-.04 1.84 0 1.84 1.96v.8l-.04 2.52-.12 2.8v2.4q0 1.64.12 2.76.159 1.12.36 1.8.76 2.04 3.56 2.04 1.4 0 2.48-.64 1.119-.64 1.56-1.72.56-1.36.56-5.4v-4.56q-.12-1.28-.36-1.28-.16 0-.56.08h-.56q-1.96 0-1.96-1.72 0-1.84 2.12-1.84.2 0 .48.04.279 0 .6.04.32.04.6.08h.72q.24 0 .52-.04.24-.04.48-.04.279-.04.48-.04 1.8 0 1.8 1.72a5 5 0 0 1-.08.96v-.04q-.08.72-.16 1.76-.04 1.04-.04 2.4v5.84q0 2.24.04 2.44.2 1.64.4 1.64h.28q.2-.04.44-.08.2-.04.52-.08.36-.04.28-.04 1.96 0 1.96 1.76 0 1.84-2.24 1.84h-.4q-.2 0-.4-.04a.35.35 0 0 1-.16-.04h-.12q-.96-.12-1.08-.12a.3.3 0 0 0-.12.04h-.12q-.24 0-.44.04h.04q-.48.12-.96.12m26.045-11.84q0 .92-.04 1.44-.039.52-.24.8t-.6.36q-.36.04-1.04.04h-12.04q-.16 0-.16.04 0 2.68 1.56 4.36 1.48 1.72 3.72 1.72 1.48 0 2.68-.8t1.56-2.04l.36-1.08q.24-.6.68-.96.48-.36 1.16-.36 2.08 0 2.08 2 0 2.72-2.8 4.8-2.68 2-6.04 2-4.32 0-6.84-2.84-2.48-2.84-2.48-7.52 0-4.72 2.64-7.84 2.68-3.08 7-3.08 2 0 3.56.64a8.5 8.5 0 0 1 2.8 1.88q2.48 2.6 2.48 6.44m-4.36-.96q0-1.8-1.32-3.12-1.4-1.32-3.12-1.32-1.76 0-3.44 1.44-1.52 1.4-1.52 3ZM41.045 167.6q1.36 0 1.56 1.2 2.12-1.88 5.16-1.88 2.04 0 3.68.72a7.9 7.9 0 0 1 2.8 2.04q1.2 1.32 1.8 3.24.64 1.88.64 4.24 0 2.4-.72 4.44-.68 2.04-1.84 3.56a7.9 7.9 0 0 1-2.96 2.28q-1.72.76-3.84.76-2.76 0-4.68-1.44v2.88q0 .44.04.64v-.04q.16.76.48.76.16 0 .56-.08.28-.04.68-.08.44-.04.4-.04 1.8 0 1.8 1.76 0 1.8-2.24 1.8-.32 0-.8-.04a21 21 0 0 1-1-.12h.04q-.92-.12-2.44-.12h-.76q-.36.04-.68.08h-.16q-.04.04-.12.04-.6.08-1.08.12t-.72.04q-.92 0-1.56-.56-.64-.52-.64-1.32 0-1.72 1.92-1.72h.4l.48.08q.52.16.8.16.16 0 .24-.32.08-.44.12-1.44.04-.96.08-2.56v-7.28q.04-3.68.04-7.32-.04-1.24-.32-1.24-.2 0-.6.12-.28.08-.52.12t-.56.04q-2.04 0-2.04-1.8 0-1.72 2.32-1.72h.48q.28 0 .48.04.16 0 .28.04h.28q.28.04.44.04h.72l.56-.08q.32-.04.56-.04Zm2.16 6.32a11 11 0 0 0-.28 1.68q-.08.84-.12 1.8v.32q0 .16-.04.32v.48q0 1.24.08 2.12.12.88.32 1.44.16.52.52.96.4.44.88.8.56.36 1.24.6.68.2 1.44.2 2.44 0 3.76-1.84t1.32-5.28q0-7.04-4.72-7.04-1.56 0-2.84.96a4.12 4.12 0 0 0-1.56 2.48m33.304 14.12q-2.96 0-4-2-2.12 2.16-5.88 2.16-3.399 0-5.4-1.64-2-1.68-2-4.44 0-1.68.8-2.96a6.3 6.3 0 0 1 2.24-2.12q1.08-.6 1.88-.8.76-.2 3.08-.48 3.04-.32 3.88-.84.68-.48.68-1.8 0-1.28-.92-2.04-.879-.76-2.52-.76a4.9 4.9 0 0 0-2.84.88v-.04q-.28.28-.28.32h.04q.84.72.84 1.72t-.76 1.64q-.72.64-1.84.64-1.28 0-2.12-.8-.84-.84-.84-2.08 0-2.4 2.36-4.04 2.24-1.64 5.48-1.64 7.56 0 7.56 7.16v9q.04.52.08.72.2.88.64.88.68 0 .68-1.88v-1.88q0-1.72 1.8-1.72 1.92 0 1.92 2.32v.2l-.04 2.16q-.08 4.16-4.52 4.16m-4.8-9.56q-.24.08-.48.2a5 5 0 0 1-.48.16q-1.08.36-3.4.56-3.76.36-3.76 2.68 0 1.16.84 1.88.88.68 2.4.68 2.28 0 3.52-1.24 1.281-1.24 1.32-3.4Zm19.019-11.56q2.199 0 3.72.88.36-1.12 1.76-1.12 1.88 0 1.88 1.76a.36.36 0 0 1-.04.16v.28q0 .16-.04.4v.4a6.8 6.8 0 0 0-.16 1.4q0 .52.12 1.24.08.44.12.8.04.32.04.6 0 2-1.88 2-1.84 0-1.92-1.72l-.04-1.28q-.04-.92-1.12-1.56-1.041-.68-2.52-.68-1.44 0-2.44.72t-1 1.84q0 .96.76 1.56.76.56 2 .8.56.08 1.08.16l1.12.16q7.04.96 7.04 5.84 0 2.92-2.36 4.88-2.32 1.76-5.84 1.76-2.64 0-4.8-1.2-.201 1.52-1.92 1.52-2.04 0-2.04-2.08.08-.6.12-.96.08-.36.12-.64a4 4 0 0 0 .04-.56 8 8 0 0 0 .04-.88q0-.44-.08-.92a9 9 0 0 0-.12-.96 4.8 4.8 0 0 1-.12-1.08q0-1.84 1.88-1.84 1.28 0 1.56.68.28.6.32 2.2.04 1.4 1.48 2.28 1.479.88 3.84.88 1.56 0 2.56-.76 1.04-.8 1.04-2.04 0-2.12-3.52-2.48a35 35 0 0 1-3.68-.6q-1.6-.4-2.68-1.04-1.08-.68-1.64-1.72t-.56-2.6q0-1.44.56-2.64.6-1.2 1.64-2.04t2.48-1.32 3.2-.48m29.567 8.96q0 .92-.04 1.44t-.24.8-.6.36q-.36.04-1.04.04h-12.04q-.16 0-.16.04 0 2.68 1.56 4.36 1.48 1.72 3.72 1.72 1.48 0 2.68-.8t1.56-2.04l.36-1.08q.24-.6.68-.96.48-.36 1.16-.36 2.08 0 2.08 2 0 2.72-2.8 4.8-2.68 2-6.04 2-4.32 0-6.84-2.84-2.48-2.84-2.48-7.52 0-4.72 2.64-7.84 2.68-3.08 7-3.08 2 0 3.56.64a8.5 8.5 0 0 1 2.8 1.88q2.48 2.6 2.48 6.44m-4.36-.96q0-1.8-1.32-3.12-1.4-1.32-3.12-1.32-1.76 0-3.44 1.44-1.52 1.4-1.52 3Zm12.413-7.32q1.48 0 1.72 1.24 2.16-1.92 5.44-1.92 2.24 0 4.2 1.12h-.04q2.079 1.2 2.76 2.84.6 1.4.6 3.56v9.08q.04.64.28.8h.52q.32-.04.52-.08t.36-.04q.16-.04.4-.04.72 0 1.28.52.56.48.56 1.16 0 .8-.64 1.36-.64.52-1.56.52a8 8 0 0 1-.64-.04q-.4 0-.84-.08-.6-.08-1.32-.12-.681-.08-1.2-.08a9 9 0 0 0-.84.04q-.4 0-.72.04a24 24 0 0 1-1.44.16q-.56.08-.64.08-2.16 0-2.16-1.88 0-1.68 1.92-1.68.16.04.32.04t.28.04h.32q.2.04.32.08h.2q.12.04.16.04.28 0 .32-1.52 0-.48.04-.96.04-.52.04-1l.04-2.28v-2.88q0-1.8-.2-2.68-.12-.6-.44-1.08a2.9 2.9 0 0 0-.76-.84v.04q-1.16-.8-2.44-.8-2.68 0-3.84 1.88-.8 1.36-.8 4.8v5.04q0 1.36.08 1.84.12.48.36.48.039 0 .24-.04t.44-.08q.24-.08.44-.12.24-.04.56-.04 1.84 0 1.84 1.8t-2.16 1.8q-.2 0-.8-.08-.56-.08-1.28-.16a12 12 0 0 0-2.64-.08q-.48.04-1.16.12l-.88.08q-.36.08-.68.08a5 5 0 0 1-.4.04q-2.24 0-2.24-1.84 0-1.72 1.84-1.72.2 0 .32.04.16 0 .32.04.519.12 1.08.12.48 0 .52-1.64 0-1.04.04-2.08.04-1.08.04-2.12v-4.6l-.08-1.32q-.08-.88-.16-1.24-.08-.4-.28-.48-.081.04-.36.08-.28 0-.44.04-.24.04-.44.08h-.4q-2 0-2-1.76t2.32-1.76h.24q.12-.04.28.04l1.32.16h.44q.28-.04.52-.08.32-.04.52-.04.24-.04.56-.04m37.189 15.36q.039 1.4.36 1.4a.7.7 0 0 0 .2-.04h.16q.12-.04.28-.08h.16a.35.35 0 0 1 .16-.04h.08q0-.04.08-.04a.44.44 0 0 1 .2-.04h.24q1.88 0 1.88 1.8t-2.2 1.8q-.321 0-.84-.04-.48-.04-1.16-.12a26 26 0 0 0-1.16-.12 10 10 0 0 0-.8-.04q-.28 0-.72.04t-1.04.12q-.56.08-1.04.12t-.8.04h-.2q-2.24 0-2.24-1.92 0-1.68 1.96-1.68h.4q.16.04.32.04.48.08.68.12t.28.04q.159 0 .24-.2.08-.28.12-1t.08-1.92v-1.32q.04-.68.04-1.32l.12-5.88v-1.52q0-.88-.04-1.84v-3.36l-.12-1.52a1.6 1.6 0 0 0-.2-.24q-.12-.12-.24-.12-.04 0-.96.16-.201.04-.36.04h-.32q-1.96 0-1.96-1.72 0-1.8 2.16-1.8h.44q.28 0 .4.04l.8.12q.08 0 .16.04h.16q.2.04.36.04h.72q.32-.04.64-.12.36-.08.64-.12a5 5 0 0 1 .64-.04q1.48 0 1.48 1.64v.36q.04.12-.04.28-.24 2.96-.24 8.2Zm14.583 5.24q-4.28 0-6.84-2.92t-2.56-7.72q0-4.84 2.56-7.68 2.56-2.96 6.96-2.96t7 2.88q2.52 2.84 2.52 7.64 0 4.88-2.6 7.76-2.6 3-7.04 3m.2-17.72q-2.4 0-3.76 1.72-1.32 1.72-1.44 4.92v.44q0 3.32 1.32 5.2t3.72 1.88q2.44 0 3.84-1.84 1.44-1.88 1.44-5.28 0-7.04-5.12-7.04m20.876-3.56q2.2 0 3.72.88.36-1.12 1.76-1.12 1.88 0 1.88 1.76a.35.35 0 0 1-.04.16v.28q0 .16-.04.4v.4a7 7 0 0 0-.12.72q-.04.36-.04.68 0 .52.12 1.24.081.44.12.8.04.32.04.6 0 2-1.88 2-1.839 0-1.92-1.72l-.04-1.28q-.04-.92-1.12-1.56-1.04-.68-2.52-.68-1.44 0-2.44.72t-1 1.84q0 .96.76 1.56.76.56 2 .8.561.08 1.08.16l1.12.16q7.04.96 7.04 5.84 0 2.92-2.36 4.88-2.32 1.76-5.84 1.76-2.64 0-4.8-1.2-.2 1.52-1.92 1.52-2.04 0-2.04-2.08.081-.6.12-.96a8 8 0 0 0 .12-.64q.04-.28.04-.56.04-.32.04-.88 0-.44-.08-.92a9 9 0 0 0-.12-.96 4.8 4.8 0 0 1-.12-1.08q0-1.84 1.88-1.84 1.281 0 1.56.68.28.6.32 2.2.04 1.4 1.48 2.28 1.48.88 3.84.88 1.56 0 2.56-.76 1.04-.8 1.04-2.04 0-2.12-3.52-2.48a36 36 0 0 1-3.68-.6q-1.6-.4-2.68-1.04-1.08-.68-1.64-1.72t-.56-2.6q0-1.44.56-2.64.6-1.2 1.64-2.04t2.48-1.32 3.2-.48m36.408-2.12h-7.52q-.72 0-1.16.04t-.64.12q-.48.12-.48 1v.44q.04.28.08.6t.04.64q.04.32.04.52 0 2.56-2 2.56-1.96 0-1.96-2.2v-.6q0-.4.04-.84.04-.4.04-.76a7 7 0 0 0 .04-.6v-.96q0-.4-.04-.72 0-.28-.04-.56v-.56q0-.72.08-1.12.12-.4.4-.6.32-.24.88-.28.6-.08 1.6-.08h10.04q.36 0 .88-.04h.48q.279-.04.6-.04.44-.04 1.04-.04h1.16q2.92 0 2.92 1.92 0 1.04-1.16 2.2l-6.08 5.84q3.4.12 5.48 2.24 2.28 2.28 2.28 5.72 0 4.28-3.24 7.08v-.04a9.3 9.3 0 0 1-3.56 2.04q-2 .68-4.48.68-4.521 0-7.56-2.2-3.16-2.32-3.16-5.68 0-1 .32-1.88a4.7 4.7 0 0 1 .88-1.56q.6-.64 1.36-1a3.8 3.8 0 0 1 1.72-.4q1.28 0 2.08.76.84.76.84 1.96 0 2.32-2.72 2.44.159 1.4 1.8 2.52.92.64 2.12 1 1.2.32 2.48.32 1.4 0 2.64-.4a6.7 6.7 0 0 0 2.16-1.24q.84-.84 1.32-1.92a6 6 0 0 0 .48-2.4q0-4.44-5.04-4.44-1.281 0-3 .32a7 7 0 0 0-.36.08h-.4q-1.56 0-1.56-1.52 0-.68.8-1.44ZM55.591 206.92q2.199 0 3.72.88.36-1.12 1.76-1.12 1.88 0 1.88 1.76a.36.36 0 0 1-.04.16v.28q0 .16-.04.4v.4a6.7 6.7 0 0 0-.16 1.4q0 .52.12 1.24.08.44.12.8.04.32.04.6 0 2-1.88 2-1.84 0-1.92-1.72l-.04-1.28q-.04-.92-1.12-1.56-1.041-.68-2.52-.68-1.44 0-2.44.72t-1 1.84q0 .96.76 1.56.76.56 2 .8.56.08 1.08.16l1.12.16q7.04.96 7.04 5.84 0 2.92-2.36 4.88-2.32 1.76-5.84 1.76-2.64 0-4.8-1.2-.201 1.52-1.92 1.52-2.04 0-2.04-2.08.08-.6.12-.96.08-.36.12-.64t.04-.56q.04-.32.04-.88 0-.44-.08-.92a9 9 0 0 0-.12-.96 4.8 4.8 0 0 1-.12-1.08q0-1.84 1.88-1.84 1.28 0 1.56.68.28.6.32 2.2.04 1.4 1.48 2.28 1.479.88 3.84.88 1.56 0 2.56-.76 1.04-.8 1.04-2.04 0-2.12-3.52-2.48a35 35 0 0 1-3.68-.6q-1.6-.4-2.68-1.04-1.08-.68-1.64-1.72t-.56-2.6q0-1.44.56-2.64.6-1.2 1.64-2.04t2.48-1.32 3.2-.48m29.567 8.96q0 .92-.04 1.44-.039.52-.24.8t-.6.36q-.36.04-1.04.04h-12.04q-.16 0-.16.04 0 2.68 1.56 4.36 1.48 1.72 3.72 1.72 1.48 0 2.68-.8t1.56-2.04l.36-1.08q.24-.6.68-.96.48-.36 1.16-.36 2.08 0 2.08 2 0 2.72-2.8 4.8-2.68 2-6.04 2-4.32 0-6.84-2.84-2.48-2.84-2.48-7.52 0-4.72 2.64-7.84 2.68-3.08 7-3.08 2 0 3.56.64a8.5 8.5 0 0 1 2.8 1.88q2.48 2.6 2.48 6.44m-4.36-.96q0-1.8-1.32-3.12-1.4-1.32-3.12-1.32-1.76 0-3.44 1.44-1.52 1.4-1.52 3Zm16.653-8q.4 0 .8.04.44.04.84.12.32-1.68 1.52-2.6 1.24-.96 3.4-.96 2.04 0 3.36 1.04 1.36 1.04 1.36 2.68 0 1.16-.8 1.96-.76.8-1.8.8-.84 0-1.52-.56-.64-.6-.64-1.4 0-.36.08-.64.12-.32.52-.64a1.5 1.5 0 0 0-.36-.12.7.7 0 0 0-.32-.08q-1.28 0-1.4 1.76 1.4 1.04 2.12 2.4.76 1.32.76 3 0 2.84-2.2 4.76-2.12 1.88-5.32 1.88-1.16 0-2.32-.24a10.2 10.2 0 0 1-2.28-.8q-.6-.2-.76-.2-.28 0-.52.32-.2.28-.2.72 0 1.44 3.32 1.44h.48q.16 0 .36-.04h.52q3.68 0 6.04.72 2.28.72 3.6 2.2 1.36 1.48 1.36 3.4 0 1.52-.72 2.72-.68 1.2-2 2.04t-3.2 1.28-4.2.44q-4.68 0-7.32-1.64t-2.64-4.56q0-2.84 2.8-4.36-2.4-1.28-2.4-3.64 0-1.28.76-2.28t2.04-1.6a4.3 4.3 0 0 1-.6-1.36 8.5 8.5 0 0 1-.12-1.48q0-2.76 2.2-4.72 2.16-1.8 5.4-1.8m.12 3.56q-1.4 0-2.4.84t-1.08 2.12v.16q0 1.48.96 2.36.96.84 2.48.84 1.64 0 2.64-.84 1-.88 1-2.28t-1.04-2.28q-1.04-.92-2.56-.92m.04 14.68q-2.76 0-4.32.8-1.56.76-1.56 2.04 0 1.32 1.52 2.04 1.52.76 4.12.76 2.76 0 4.32-.76 1.6-.76 1.6-2.04 0-1.32-1.52-2.08-1.48-.76-4.16-.76m29.236 2.56q-1.52 0-1.72-1.24-2.08 1.72-5.28 1.72-4.84 0-6.76-3.04a6 6 0 0 1-.64-1.44 6.7 6.7 0 0 1-.28-1.6q-.04-.48-.04-1.36v-5.16q0-4.68-.48-4.68a1 1 0 0 0-.24.04q-.16 0-.36.04a7 7 0 0 1-.6.08q-.36.04-.28.04-1.96 0-1.96-1.8 0-1.72 2.28-1.72.2 0 .48.04.32 0 .64.04t.6.08h.96q.32-.04.64-.12.16-.04.32-.04.16-.04.4-.04 1.84 0 1.84 1.96v.8l-.04 2.52-.12 2.8v2.4q0 1.64.12 2.76.16 1.12.36 1.8.76 2.04 3.56 2.04 1.4 0 2.48-.64 1.12-.64 1.56-1.72.56-1.36.56-5.4v-4.56q-.12-1.28-.36-1.28-.16 0-.56.08h-.56q-1.96 0-1.96-1.72 0-1.84 2.12-1.84.2 0 .48.04.28 0 .6.04t.6.08h.72q.24 0 .52-.04.24-.04.48-.04.28-.04.48-.04 1.8 0 1.8 1.72a5 5 0 0 1-.08.96v-.04q-.08.72-.16 1.76-.04 1.04-.04 2.4v5.84q0 2.24.04 2.44.2 1.64.4 1.64h.28q.2-.04.44-.08a8 8 0 0 1 .52-.08q.36-.04.28-.04 1.96 0 1.96 1.76 0 1.84-2.24 1.84h-.4a2 2 0 0 1-.4-.04.35.35 0 0 1-.16-.04h-.12q-.96-.12-1.08-.12a.3.3 0 0 0-.12.04h-.12q-.24 0-.44.04h.04q-.48.12-.96.12m12.966-20.12q1.48 0 1.72 1.24 2.16-1.92 5.44-1.92 2.24 0 4.2 1.12h-.04q2.079 1.2 2.76 2.84.6 1.4.6 3.56v9.08q.04.64.28.8h.52q.32-.04.52-.08t.36-.04q.16-.04.4-.04.72 0 1.28.52.56.48.56 1.16 0 .8-.64 1.36-.64.52-1.56.52a8 8 0 0 1-.64-.04q-.4 0-.84-.08-.6-.08-1.32-.12-.681-.08-1.2-.08a9 9 0 0 0-.84.04q-.4 0-.72.04a24 24 0 0 1-1.44.16q-.56.08-.64.08-2.16 0-2.16-1.88 0-1.68 1.92-1.68.16.04.32.04t.28.04h.32q.2.04.32.08h.2q.12.04.16.04.28 0 .32-1.52 0-.48.04-.96.04-.52.04-1l.04-2.28v-2.88q0-1.8-.2-2.68-.12-.6-.44-1.08a2.9 2.9 0 0 0-.76-.84v.04q-1.16-.8-2.44-.8-2.68 0-3.84 1.88-.8 1.36-.8 4.8v5.04q0 1.36.08 1.84.12.48.36.48.039 0 .24-.04t.44-.08q.24-.08.44-.12.24-.04.56-.04 1.84 0 1.84 1.8t-2.16 1.8q-.2 0-.8-.08-.56-.08-1.28-.16a12 12 0 0 0-2.64-.08q-.48.04-1.16.12l-.88.08q-.36.08-.68.08a5 5 0 0 1-.4.04q-2.24 0-2.24-1.84 0-1.72 1.84-1.72.2 0 .32.04.16 0 .32.04.519.12 1.08.12.48 0 .52-1.64 0-1.04.04-2.08.04-1.08.04-2.12v-4.6l-.08-1.32q-.08-.88-.16-1.24-.08-.4-.28-.48-.081.04-.36.08-.28 0-.44.04-.24.04-.44.08h-.4q-2 0-2-1.76t2.32-1.76h.24q.12-.04.28.04l1.32.16h.44q.28-.04.52-.08.32-.04.52-.04.24-.04.56-.04m29.228-.68q1.521 0 2.76.48 1.28.44 2.24 1.24v-2.12q0-.72-.04-1.12 0-.44-.04-.64-.12-.52-.32-.68a4 4 0 0 1-.48.08h-.44.08q-.24.08-.52.12h-.44q-2.08 0-2.08-1.76 0-1.8 2.56-1.8h.28q.2 0 .4.04.12 0 .24.04h.24l1.2.12h.32l.56-.08q.32-.04.56-.04.28-.04.52-.04 1.72 0 1.72 2.08v.6q-.04.04-.04.8 0 .2-.04.48v.52q0 .32-.12 2.96 0 .2-.04.44v.4q-.04.64-.04 1.16v4.56l.08 6.32q.04 1.28.08 2t.12.96q0 .24.28.24h.32l.32-.08h.24a.7.7 0 0 1 .2-.04.56.56 0 0 1 .24-.04h.28q2.04 0 2.04 1.76 0 1.84-2.36 1.84a5 5 0 0 1-.56-.04q-.32 0-.64-.04-.159 0-.36-.04-.159 0-.36-.04a2.2 2.2 0 0 0-.44-.04q-.04 0-.08.04h-.32q-.12 0-.32.04h.08q-.48.12-.96.12-1.28 0-1.6-1.24-2 1.72-5.24 1.72-4.24 0-6.68-3-2.52-2.92-2.52-7.68 0-2.32.64-4.28.68-1.96 1.84-3.36 2.48-2.96 6.64-2.96m4.76 13.84q.081-.64.12-1.4.04-.8.04-1.76 0-1.24-.08-2.04-.039-.84-.12-1.28-.32-1.84-1.4-2.68-1.44-1.12-3.08-1.12-2.36 0-3.68 1.88-1.32 1.84-1.32 5.08 0 3.4 1.36 5.32 1.4 1.88 3.8 1.88 1.8 0 2.96-1.04 1.2-1.08 1.4-2.84m19.425 7.44q-4.281 0-6.84-2.92t-2.56-7.72q0-4.84 2.56-7.68 2.559-2.96 6.96-2.96t7 2.88q2.52 2.84 2.52 7.64 0 4.88-2.6 7.76-2.6 3-7.04 3m.2-17.72q-2.4 0-3.76 1.72-1.32 1.72-1.44 4.92v.44q0 3.32 1.32 5.2t3.72 1.88q2.439 0 3.84-1.84 1.44-1.88 1.44-5.28 0-7.04-5.12-7.04m20.876-3.56q2.199 0 3.72.88.36-1.12 1.76-1.12 1.88 0 1.88 1.76a.4.4 0 0 1-.04.16v.28q0 .16-.04.4v.4a6.4 6.4 0 0 0-.16 1.4q0 .52.12 1.24.08.44.12.8.04.32.04.6 0 2-1.88 2-1.84 0-1.92-1.72l-.04-1.28q-.04-.92-1.12-1.56-1.041-.68-2.52-.68-1.44 0-2.44.72t-1 1.84q0 .96.76 1.56.76.56 2 .8.56.08 1.08.16l1.12.16q7.04.96 7.04 5.84 0 2.92-2.36 4.88-2.32 1.76-5.84 1.76-2.64 0-4.8-1.2-.201 1.52-1.92 1.52-2.04 0-2.04-2.08.08-.6.12-.96.08-.36.12-.64t.04-.56q.04-.32.04-.88 0-.44-.08-.92a10 10 0 0 0-.12-.96 4.8 4.8 0 0 1-.12-1.08q0-1.84 1.88-1.84 1.28 0 1.56.68.28.6.32 2.2.04 1.4 1.48 2.28 1.479.88 3.84.88 1.56 0 2.56-.76 1.04-.8 1.04-2.04 0-2.12-3.52-2.48a35 35 0 0 1-3.68-.6q-1.6-.4-2.68-1.04-1.08-.68-1.64-1.72t-.56-2.6q0-1.44.56-2.64.6-1.2 1.64-2.04t2.48-1.32 3.2-.48m15.287 21.28q-1.28 0-2.16-.84t-.88-2.12q0-1.24.88-2.08.88-.88 2.16-.88t2.16.88q.88.84.88 2.08 0 1.28-.88 2.12-.879.84-2.16.84"/></svg>