<svg xmlns="http://www.w3.org/2000/svg" width="57" height="101" fill="none" viewBox="0 0 57 101"><path fill="#ffcab9" d="M44.222 124.952V56.875c5.517-2.063 9.44-7.33 9.44-13.505V18.81H2.628v24.56c0 6.175 3.923 11.442 9.44 13.506v68.077Z"/><path fill="#fabba7" d="M8.104 24.459c-3.025 0-5.476-2.423-5.476-5.412v-5.16c0-2.99 2.451-5.413 5.476-5.413 3.024 0 5.476 2.423 5.476 5.412v5.16c0 2.99-2.452 5.413-5.476 5.413M19.056 24.459c-3.025 0-5.476-2.423-5.476-5.412V8.003c0-2.989 2.451-5.412 5.476-5.412 3.024 0 5.476 2.423 5.476 5.412v11.044c0 2.989-2.452 5.412-5.476 5.412M30.008 24.459c-3.025 0-5.476-2.423-5.476-5.412V8.003c0-2.989 2.451-5.412 5.476-5.412 3.024 0 5.476 2.423 5.476 5.412v11.044c0 2.989-2.452 5.412-5.476 5.412M40.96 24.459c-3.025 0-5.476-2.423-5.476-5.412V8.003c0-2.989 2.451-5.412 5.476-5.412 3.024 0 5.476 2.423 5.476 5.412v11.044c0 2.989-2.452 5.412-5.476 5.412"/><path fill="#ffcab9" d="M53.662 43.37V19.047c0-2.99-2.451-5.412-5.476-5.412H30.008c-3.025 0-5.476 2.423-5.476 5.412s2.451 5.411 5.476 5.411H42.71v8.1c-5.073.93-10.092 5.66-10.092 12.301"/><path fill="#000" d="M49.062 11.087V8.003c.023-6.944-8.493-10.581-13.578-5.895C32.527-.687 27.488-.686 24.532 2.108 19.942-2.13 12.274.394 11.107 6.452 5.967 4.304-.116 8.338.002 13.886V43.37c0 6.422 3.726 12.315 9.44 15.191l.93 65.331c0 1.434 1.175 2.596 2.625 2.596 1.451 0 2.627-1.162 2.627-2.596l-.93-67.017c0-1.079-.676-2.045-1.697-2.427-4.631-1.733-7.743-6.185-7.743-11.078V26.541c2.754 1.09 6.253.375 8.326-1.599C16.537 27.737 21.576 27.737 24.532 24.942a8.12 8.12 0 0 0 5.476 2.112h10.076v3.538c-5.213 1.882-10.092 7.062-10.092 14.267 0 1.434 1.175 2.596 2.626 2.596s2.626-1.162 2.626-2.596c0-5.387 4.093-9.043 7.944-9.748a2.604 2.604 0 0 0 2.148-2.552v-8.1c0-1.434-1.175-2.596-2.626-2.596H30.008c-1.571 0-2.85-1.264-2.85-2.816 0-1.553 1.278-2.817 2.85-2.817h18.178c1.571 0 2.85 1.264 2.85 2.817V43.37c0 4.893-3.112 9.345-7.743 11.078a2.6 2.6 0 0 0-1.697 2.427l.93 67.017c0 1.434 1.175 2.596 2.626 2.596s2.627-1.162 2.627-2.596l-.93-65.33c5.713-2.877 9.44-8.77 9.44-15.192V19.047c0-4.123-3.17-7.527-7.227-7.96m-8.102-5.9c1.57 0 2.85 1.263 2.85 2.816v3.036h-5.7V8.003c0-1.553 1.278-2.816 2.85-2.816M8.104 21.863c-1.572 0-2.85-1.263-2.85-2.816v-5.161C5.398 10.154 10.811 10.157 10.954 13.886v5.16c0 1.554-1.279 2.817-2.85 2.817m10.952 0c-1.571 0-2.85-1.263-2.85-2.816V8.004c.144-3.733 5.557-3.73 5.7-.001v11.044c0 1.553-1.279 2.816-2.85 2.816m8.102-10.31V8.003C27.302 4.27 32.715 4.273 32.858 8.003v3.036h-2.85a8.1 8.1 0 0 0-2.85.512"/></svg>