<svg xmlns="http://www.w3.org/2000/svg" width="68" height="101" fill="none" viewBox="0 0 68 101"><path fill="#ffcab9" d="M61.503 36.716c-2.707-1.214-5.876.015-7.08 2.744L47.19 56.347h-1.716v-40.79c0-2.987-2.4-5.408-5.362-5.408s-5.363 2.42-5.363 5.407v-7.59c0-2.985-2.4-5.407-5.363-5.407-2.961 0-5.362 2.421-5.362 5.408v7.59c0-2.987-2.401-5.408-5.363-5.408s-5.363 2.42-5.363 5.407v12.795c0-2.986-2.4-5.407-5.363-5.407-2.961 0-5.362 2.42-5.362 5.407V67.15c0 6.17 3.842 11.433 9.244 13.496v45.75h31.49v-45.75a14.42 14.42 0 0 0 8.522-8.962l.036.005 5.125-11.432 7.233-16.403c1.204-2.729-.014-5.925-2.72-7.138"/><path fill="#fabba7" d="M21.032 15.556a5.4 5.4 0 0 1 1.496-3.74 5.4 5.4 0 0 0-1.496-1.104Z"/><path fill="#000" d="M12.728 78.22c-4.536-1.732-7.583-6.18-7.583-11.07v-6.84C5.145 56.956.001 56.956.001 60.31v6.84c0 6.418 3.65 12.306 9.245 15.18v45.088c0 1.432 1.151 2.594 2.572 2.594 1.42 0 2.572-1.162 2.572-2.594V80.645a2.59 2.59 0 0 0-1.662-2.425"/><path fill="#000" d="M66.73 38.786a7.92 7.92 0 0 0-4.182-4.44c-3.951-1.771-8.752.155-10.486 4.085l-4.015 9.375v-32.25c.11-5.477-5.703-9.503-10.725-7.49C36.71-2.694 21.882-2.684 21.452 8.066c-5.023-2.011-10.834 2.012-10.725 7.49v5.305C5.707 18.851-.11 22.873.002 28.351v18.99C.002 50.696 5.146 50.696 5.146 47.343v-18.99C5.289 24.62 10.587 24.625 10.727 28.35v18.037C10.727 49.743 15.871 49.743 15.871 46.389V15.556C16.01 11.834 21.311 11.823 21.452 15.557v25.221C21.452 44.132 26.596 44.132 26.596 40.778V7.968c0-1.552 1.252-2.815 2.791-2.815s2.79 1.262 2.79 2.814v32.81C32.178 44.132 37.323 44.132 37.323 40.778V15.557c0-1.552 1.252-2.815 2.79-2.815 1.54 0 2.792 1.262 2.792 2.814v38.26c-7.592.685-13.532 7.121-13.532 14.822C29.372 71.992 34.516 71.992 34.516 68.639c0-7.272 6.528-9.955 12.675-9.698a2.57 2.57 0 0 0 2.361-1.565l7.223-16.862q1.256-2.253 3.683-1.428 2.235 1.265 1.417 3.714C57.818 52 49.44 70.83 49.44 70.83c-1.186 3.397-3.82 6.16-7.044 7.391a2.59 2.59 0 0 0-1.662 2.425v45.75a2.58 2.58 0 0 0 2.572 2.593 2.58 2.58 0 0 0 2.572-2.593v-44.07c3.824-1.98 6.884-5.483 8.375-9.665 4.14-9.236 8.237-18.49 12.32-27.752a8.01 8.01 0 0 0 .155-6.122"/></svg>