<svg xmlns="http://www.w3.org/2000/svg" width="156" height="42" fill="none" viewBox="0 0 156 42"><path fill="#fff" d="M0 41.25V2.75h16.5q1.595 0 2.75 1.155 1.21 1.155 1.21 2.805v11.825q0 1.65-1.21 2.805-1.155 1.155-2.75 1.155H5.115V41.25Zm5.115-23.87h8.25q.825 0 1.375-.55.605-.605.605-1.43V9.79q0-.77-.605-1.32a1.78 1.78 0 0 0-1.375-.605h-8.25Zm26.06 23.87q-1.65 0-2.86-1.155-1.155-1.21-1.155-2.86V17.71q0-1.65 1.155-2.805 1.21-1.155 2.86-1.155h7.48q1.705 0 2.86 1.155t1.155 2.805v8.36q0 1.65-1.155 2.86-1.155 1.155-2.86 1.155H32.33V34.1q0 .825.55 1.43.605.55 1.485.55h7.15l1.155 5.17Zm1.155-16.335h3.19q.825 0 1.375-.55.605-.605.605-1.43V20.9q0-.825-.605-1.375a1.78 1.78 0 0 0-1.375-.605h-1.155q-.88 0-1.485.605-.55.55-.55 1.375ZM48.172 41.25v-27.5h11.495q1.65 0 2.805 1.21 1.21 1.155 1.21 2.805v5.995l-5.17-1.155v-1.65q0-.825-.605-1.43a1.78 1.78 0 0 0-1.375-.605h-3.19v22.33Zm24.49 0q-1.705 0-2.86-1.155t-1.156-2.86v-19.47q0-1.705 1.155-2.86t2.86-1.155h6.325V1.21L84.156 0v41.25Zm3.134-5.17h3.19V18.92h-3.19q-.77 0-1.375.55t-.605 1.43v13.2q0 .77.605 1.375.606.605 1.375.605M90.25 6.38V1.21L95.419 0v5.17Zm.11 34.87V14.96l5.17-1.21v27.5Zm15.731 0q-1.65 0-2.805-1.155-1.155-1.21-1.155-2.86V32.67h5.115v1.43q0 .825.605 1.43.605.55 1.43.55h1.155q.825 0 1.375-.55.605-.605.605-1.43v-2.035q0-.825-.605-1.375a1.78 1.78 0 0 0-1.375-.605h-4.345q-1.65 0-2.805-1.155-1.155-1.21-1.155-2.86v-8.305q0-1.65 1.155-2.805 1.155-1.21 2.805-1.21h7.535q1.65 0 2.805 1.21 1.155 1.155 1.155 2.805v4.565h-5.17V20.9q0-.825-.605-1.375a1.78 1.78 0 0 0-1.375-.605h-1.155q-.825 0-1.43.605a1.78 1.78 0 0 0-.605 1.375v2.035q0 .825.605 1.43.605.55 1.43.55h4.345q1.65 0 2.805 1.21 1.155 1.155 1.155 2.805v8.525q-.055 1.54-1.21 2.695a3.85 3.85 0 0 1-2.75 1.1Zm17.589 0V1.21l5.17-1.155V13.75h6.545l-1.21 5.17h-5.335v22.33Zm20.139 0q-1.65 0-2.86-1.155-1.155-1.21-1.155-2.86V17.71q0-1.65 1.155-2.805 1.21-1.155 2.86-1.155h7.48q1.704 0 2.86 1.155t1.155 2.805v8.36q0 1.65-1.155 2.86-1.155 1.155-2.86 1.155h-6.325V34.1q0 .825.55 1.43.605.55 1.485.55h7.15l1.155 5.17Zm1.155-16.335h3.19q.825 0 1.375-.55.605-.605.605-1.43V20.9q0-.825-.605-1.375a1.78 1.78 0 0 0-1.375-.605h-1.155q-.88 0-1.485.605-.55.55-.55 1.375Z"/></svg>